<svg width="353" height="539" viewBox="0 0 353 539" fill="none" xmlns="http://www.w3.org/2000/svg">
<g clip-path="url(#clip0_1650_6979)">
<path d="M85.2174 353.874C83.9644 359.157 81.3737 365.304 80.0699 365.591C77.9195 366.049 69.9274 365.913 68.6913 365.304C67.4553 364.694 66.2023 354.873 66.2023 354.873C66.2023 354.873 62.0877 363.949 60.5468 363.949C59.006 363.949 55.9074 354.89 56.8217 353.671C58.7012 351.148 60.1913 348.439 60.1913 348.439L56.5 348.134C56.5 348.134 57.3805 347.084 58.7012 345.662C58.8705 346.356 59.497 346.881 60.259 346.932C61.1733 346.932 61.9861 346.238 62.02 345.306C62.0708 343.935 62.3755 342.597 62.9174 341.378C64.8815 339.566 66.8457 338.093 68.0479 338.009C70.9433 337.805 80.6287 343.156 84.32 345.831C84.6925 346.085 84.9972 346.339 85.2343 346.542C86.2502 347.406 86.0132 350.454 85.2343 353.874H85.2174Z" fill="white"/>
<path d="M105.655 246.167C105.655 246.167 105.96 247.877 106.671 249.384C107.094 250.299 107.653 251.145 108.381 251.535C110.294 252.551 113.003 250.756 113.003 250.756C113.003 250.756 113.393 253.076 115.95 253.279C118.506 253.482 119.844 251.027 119.844 251.027C119.844 251.027 121.453 252.314 123.248 251.298C125.042 250.316 125.212 244.88 125.212 244.88C125.212 244.88 127.498 244.779 130.071 241.274C132.662 237.752 132.611 231.182 132.611 231.182L117.491 222.716L105.655 246.15V246.167Z" fill="#F78575"/>
<path d="M83.4733 252.618C83.4733 252.618 85.6915 248.656 109.566 244.389C133.441 240.122 146.919 243.78 146.919 243.78L151.457 245.49L151.931 247.725L128.361 258.359L99.7115 262.202L85.9116 259.95L82.305 256.293C82.305 256.293 82.5759 253.448 83.4733 252.618Z" fill="#C87C61"/>
<path d="M85.9116 259.967C85.9116 259.967 89.6706 252.957 93.0571 253.516C96.4435 254.075 110.481 260.78 110.481 260.78C110.481 260.78 111.48 255.226 112.072 253.516C113.003 250.773 117.846 248.267 119.133 247.64C120.437 247.014 122.96 249.435 124.788 250.908C126.634 252.381 126.634 258.308 126.634 258.308C126.634 258.308 129.208 247.42 130.749 247.64C132.289 247.86 137.335 249.266 137.335 249.266L139.13 253.516L130.749 269.585L98.1368 271.109L85.9116 259.967Z" fill="white"/>
<path d="M84.303 251.856C84.303 251.856 93.4296 267.536 116.39 264.894C141.518 261.999 146.902 243.797 146.902 243.797C146.902 243.797 152.1 240.766 151.914 247.742C151.728 254.718 148.121 254.701 148.121 254.701C148.121 254.701 184.865 319.84 155.927 344.629C140.011 358.26 105.756 362.391 85.7423 343.071C60.767 318.96 84.6925 265.284 84.6925 265.284C84.6925 265.284 74.4822 258.443 84.2861 251.873L84.303 251.856Z" fill="#B46A4E"/>
<path d="M139.35 172.376C139.35 172.376 132.56 178.15 124.805 196.843C119.573 209.475 110.497 226.576 110.497 226.576L134.101 239.072L135.253 233.722L145.717 179.301L139.384 172.376H139.35Z" fill="#5CAF50"/>
<path d="M168.609 371.501L167.34 384.065H141.958V369.401L168.609 371.501Z" fill="#F78575"/>
<path d="M244.297 284.401L256.81 282.792L262.567 307.496L248.31 310.832L244.297 284.401Z" fill="#F78575"/>
<path d="M247.735 281.031C247.735 281.031 217.51 284.451 205.675 269.026C191.671 250.773 181.224 227.728 181.224 227.728L136.387 236.854C136.387 236.854 130.173 280.472 130.799 314.117C131.426 347.762 134.677 375.48 135.828 376.733C136.963 377.986 172.91 377.19 175.027 376.733C177.143 376.276 173.655 338.059 173.367 326.952C173.08 315.827 173.367 299.301 173.367 299.301C173.367 299.301 184.424 315.556 204.811 319.264C225.198 322.973 251.392 319.264 253.136 318.13C254.88 316.995 247.735 281.065 247.735 281.065V281.031Z" fill="#E3BF96"/>
<path d="M130.156 394.021C130.156 394.021 130.071 394.021 130.021 394.004C129.529 393.835 118.032 390.008 116.746 386.181C116.508 385.47 116.593 384.81 117.016 384.183C117.491 383.506 118.134 383.133 118.947 383.083C118.998 383.083 119.048 383.083 119.116 383.083C121.537 383.083 124.958 385.961 127.227 388.179C125.703 385.284 123.84 381.017 124.585 378.748C124.805 378.054 125.246 377.58 125.906 377.309C126.566 377.038 127.227 377.089 127.87 377.444C131.087 379.205 132.899 388.67 132.967 389.077C133.018 389.314 132.865 389.534 132.628 389.568C132.391 389.618 132.171 389.466 132.137 389.229C131.646 386.605 129.834 379.493 127.464 378.189C127.04 377.969 126.634 377.935 126.211 378.104C125.804 378.274 125.533 378.562 125.381 379.019C124.517 381.66 128.175 388.382 129.648 390.753C129.767 390.939 129.716 391.193 129.546 391.312C129.377 391.447 129.123 391.413 128.971 391.244C127.193 389.178 121.995 383.912 119.116 383.912C119.065 383.912 119.031 383.912 118.998 383.912C118.456 383.946 118.032 384.183 117.711 384.64C117.44 385.03 117.389 385.436 117.541 385.876C118.506 388.721 127.057 392.108 130.291 393.157C130.512 393.225 130.63 393.462 130.562 393.699C130.512 393.885 130.342 393.987 130.156 393.987V394.021Z" fill="#E3BF96"/>
<path d="M105.367 408.651C106.163 408.972 130.816 409.633 147.884 409.768C149.019 408.921 149.256 402.758 152.321 402.758C155.385 402.758 156.164 404.892 157.146 407.55C157.654 408.905 158.89 409.836 160.33 409.768C163.902 409.599 167.932 409.074 168.203 408.651C168.626 407.973 168.931 405.704 169.117 402.843C169.609 396.104 169.609 386.08 169.609 386.08C169.609 386.08 170.049 382.659 169.964 381.068C169.896 379.493 141.027 380.103 141.027 380.103L122.265 394.901C122.265 394.901 117.118 393.987 111.496 394.901C108.516 395.376 106.586 399.033 105.638 402.47C104.791 405.518 104.724 408.363 105.384 408.651H105.367Z" fill="#91473E"/>
<path d="M270.492 332.302C270.255 332.302 270.018 332.268 269.764 332.184C268.985 331.93 268.443 331.405 268.172 330.643C267.359 328.34 269.205 324.141 270.746 321.262C268.392 323.531 264.853 326.562 262.432 326.444C261.704 326.427 261.111 326.139 260.688 325.58C260.248 325.021 260.095 324.378 260.265 323.65C261.06 320.077 269.628 315.675 270.001 315.488C270.204 315.387 270.458 315.471 270.576 315.675C270.678 315.878 270.593 316.132 270.39 316.25C268.003 317.469 261.687 321.195 261.111 323.836C261.01 324.293 261.111 324.7 261.382 325.055C261.653 325.394 262.009 325.58 262.483 325.597C265.344 325.597 270.712 320.263 272.541 318.198C272.676 318.028 272.93 318.011 273.116 318.147C273.286 318.282 273.336 318.536 273.218 318.706C271.711 321.025 268.037 327.663 268.985 330.338C269.171 330.863 269.51 331.185 270.052 331.371C270.509 331.523 270.898 331.456 271.288 331.185C273.743 329.458 274.589 320.297 274.708 316.911C274.708 316.674 274.877 316.521 275.148 316.504C275.385 316.504 275.572 316.707 275.555 316.945C275.538 317.453 275.08 329.576 271.779 331.879C271.389 332.15 270.966 332.302 270.526 332.302H270.492Z" fill="#E3BF96"/>
<path d="M296.5 336.502C296.585 335.638 290.303 311.797 285.629 295.39C284.495 294.543 278.518 296.033 277.654 293.104C276.808 290.208 278.619 288.82 280.888 287.127C282.04 286.263 282.598 284.824 282.124 283.452C280.956 280.066 279.314 276.341 278.856 276.222C278.094 276.002 275.826 276.358 273.032 276.967C266.428 278.39 256.81 281.2 256.81 281.2C256.81 281.2 253.407 281.742 251.9 282.267C250.41 282.775 259.096 310.324 259.096 310.324L278.569 324.175C278.569 324.175 279.127 329.373 281.599 334.52C282.886 337.247 286.933 338.059 290.506 338.009C293.672 337.958 296.415 337.23 296.5 336.519V336.502Z" fill="#91473E"/>
<path d="M134.084 239.056C135.828 239.225 183.662 233.942 184.407 232.875C185.152 231.808 181.444 202.295 181.444 202.295C181.444 202.295 184.001 202.075 188.42 205.292C192.924 208.577 200.883 222.733 200.883 222.733L228.77 214.148C228.77 214.148 223.877 190.358 199.24 175.22C175.162 160.421 140.366 171.157 139.384 172.376C138.385 173.612 132.391 238.92 134.101 239.072L134.084 239.056Z" fill="#5CAF50"/>
<path d="M133.796 237.955C133.576 237.955 133.373 237.769 133.373 237.549L132.628 214.808C132.628 214.571 132.797 214.385 133.034 214.368C133.255 214.368 133.458 214.537 133.475 214.774L134.22 237.515C134.22 237.752 134.05 237.938 133.813 237.955H133.796Z" fill="#E3BF96"/>
<path d="M155.572 159.202L156.587 168.905C156.587 168.905 155.131 171.868 149.51 172.934C145.327 173.73 143.736 172.934 143.736 172.934L143.804 167.956L143.871 163.114L153.878 159.778L155.555 159.219L155.572 159.202Z" fill="#F78575"/>
<path d="M153.895 159.761C153.895 160.032 153.827 160.354 153.709 160.726C152.05 165.806 146.225 167.465 143.82 167.939L143.888 163.097L153.895 159.761Z" fill="#050E04"/>
<path d="M139.401 141.22C139.401 141.22 135.591 153.919 138.317 160.455C141.044 166.991 147.071 165.179 150.61 163.418C154.149 161.657 155.588 159.185 155.588 159.185C155.588 159.185 159.178 159.93 161.091 156.442C163.005 152.954 161.142 149.449 159.077 148.84C157.011 148.23 154.843 149.94 154.843 149.94L156.249 146.215C156.249 146.215 146.36 129.367 139.401 141.22Z" fill="#F78575"/>
<path d="M141.755 156.51C141.602 156.51 141.433 156.425 141.365 156.256C140.231 153.767 141.721 150.905 141.789 150.787C141.907 150.584 142.161 150.499 142.364 150.618C142.567 150.719 142.652 150.99 142.534 151.193C142.534 151.227 141.179 153.818 142.144 155.917C142.246 156.137 142.144 156.375 141.941 156.476C141.89 156.51 141.822 156.51 141.772 156.51H141.755Z" fill="#050E04"/>
<path d="M156.012 155.596C155.927 155.596 155.842 155.562 155.758 155.511C155.572 155.376 155.521 155.105 155.673 154.918L158.501 151.041C158.636 150.855 158.907 150.804 159.093 150.939C159.28 151.075 159.331 151.346 159.178 151.532L156.35 155.426C156.266 155.545 156.147 155.596 156.012 155.596Z" fill="#050E04"/>
<path d="M159.347 154.224L157.028 154.173C156.791 154.173 156.604 153.97 156.621 153.733C156.621 153.496 156.808 153.31 157.062 153.327L159.364 153.378C159.601 153.378 159.788 153.581 159.771 153.818C159.771 154.055 159.585 154.224 159.347 154.224Z" fill="#050E04"/>
<path d="M154.826 149.974C154.826 149.974 153.692 150.956 152.608 149.652C151.525 148.349 152.964 143.929 152.964 143.929C152.964 143.929 149.34 145.25 146.885 144.319C144.43 143.387 142.855 140.136 142.855 140.136C142.855 140.136 141.619 143.895 136.319 142.981C131.036 142.084 129.174 135.277 134.423 133.16C139.672 131.044 142.957 133.076 142.957 133.076C142.957 133.076 143.008 127.962 150.035 129.587C156.452 131.061 158.467 138.596 158.467 138.596C158.467 138.596 162.158 138.291 163.377 142.202C164.596 146.114 160.296 149.602 160.296 149.602C160.296 149.602 157.434 148.382 154.826 149.974Z" fill="#050E04"/>
<path d="M145.785 159.744C144.667 159.744 143.702 158.999 143.651 158.965C143.533 158.881 143.482 158.728 143.499 158.593C143.499 158.44 143.6 158.322 143.736 158.254L148.24 156.087C148.375 156.019 148.545 156.036 148.68 156.121C148.799 156.222 148.866 156.375 148.849 156.527C148.849 156.595 148.545 158.373 147.088 159.355C146.665 159.643 146.225 159.744 145.802 159.744H145.785ZM144.819 158.66C145.31 158.881 146.022 159.05 146.597 158.66C147.156 158.288 147.512 157.729 147.715 157.272L144.803 158.677L144.819 158.66Z" fill="#050E04"/>
<path d="M146.648 151.329C146.411 151.329 146.225 151.142 146.225 150.905V148.62C146.225 148.382 146.411 148.196 146.648 148.196C146.885 148.196 147.071 148.382 147.071 148.62V150.905C147.071 151.142 146.885 151.329 146.648 151.329Z" fill="#050E04"/>
<path d="M139.909 151.633C139.672 151.633 139.486 151.43 139.486 151.21L139.537 148.924C139.537 148.687 139.723 148.501 139.96 148.501C140.197 148.501 140.383 148.704 140.383 148.924L140.332 151.21C140.332 151.447 140.146 151.633 139.909 151.633Z" fill="#050E04"/>
<path d="M148.189 146.757C148.054 146.757 147.918 146.689 147.833 146.571C147.156 145.589 145.734 146.097 145.717 146.097C145.497 146.181 145.26 146.063 145.175 145.843C145.09 145.622 145.209 145.385 145.429 145.301C145.514 145.267 147.495 144.59 148.528 146.097C148.663 146.283 148.612 146.554 148.426 146.689C148.358 146.74 148.274 146.757 148.189 146.757Z" fill="#050E04"/>
<path d="M138.724 146.554C138.622 146.554 138.521 146.52 138.453 146.452C138.284 146.3 138.267 146.029 138.419 145.86C138.453 145.826 139.333 144.827 140.417 144.827C140.959 144.827 141.433 145.064 141.822 145.504C141.975 145.673 141.958 145.944 141.789 146.097C141.619 146.249 141.348 146.232 141.196 146.063C140.959 145.792 140.705 145.673 140.417 145.673C139.841 145.673 139.232 146.215 139.046 146.418C138.961 146.52 138.842 146.554 138.724 146.554Z" fill="#050E04"/>
<path d="M188.403 205.716C188.251 205.716 188.116 205.631 188.031 205.495C187.946 205.36 187.963 205.174 188.048 205.055C188.2 204.835 191.892 199.501 194.702 199.349C195.38 199.298 195.972 199.569 196.429 200.111C197.208 201.025 197.428 201.872 197.107 202.668C196.04 205.208 189.199 205.682 188.42 205.733C188.42 205.733 188.42 205.733 188.403 205.733V205.716ZM194.821 200.179C193.043 200.28 190.571 203.074 189.284 204.784C191.621 204.547 195.684 203.836 196.328 202.312C196.531 201.838 196.345 201.296 195.786 200.636C195.515 200.314 195.193 200.162 194.821 200.162V200.179Z" fill="#E3BF96"/>
<path d="M146.479 173.595C145.598 173.595 144.65 173.51 143.668 173.341C143.431 173.307 143.279 173.087 143.329 172.85C143.363 172.613 143.6 172.46 143.82 172.511C151.711 173.917 156.232 168.684 156.266 168.634C156.418 168.447 156.689 168.43 156.858 168.583C157.045 168.735 157.062 169.006 156.909 169.175C156.875 169.226 153.116 173.595 146.462 173.595H146.479Z" fill="#E3BF96"/>
<path d="M173.351 299.69C173.266 299.69 173.181 299.657 173.097 299.606C172.809 299.403 166.137 294.509 160.651 279.405C157.417 270.499 155.368 262.71 154.945 261.051H138.639C138.402 261.051 138.216 260.864 138.216 260.627C138.216 260.39 138.402 260.204 138.639 260.204H155.284C155.487 260.204 155.639 260.34 155.69 260.526C155.707 260.61 157.857 269.161 161.464 279.118C166.849 293.933 173.537 298.861 173.605 298.912C173.791 299.047 173.842 299.318 173.706 299.504C173.621 299.623 173.503 299.674 173.368 299.674L173.351 299.69Z" fill="white"/>
<path d="M187.472 248.047C187.371 248.047 178.701 247.742 177.194 238.937C177.16 238.7 177.313 238.48 177.533 238.446C177.77 238.412 177.99 238.564 178.024 238.785C179.412 246.878 187.15 247.183 187.472 247.183C187.709 247.183 187.896 247.386 187.879 247.623C187.879 247.86 187.692 248.03 187.455 248.03L187.472 248.047Z" fill="white"/>
<path d="M82.8807 338.804C83.6596 339.126 84.5739 339.024 85.2682 338.466L253.983 201.008C254.982 200.196 255.134 198.723 254.321 197.707C253.492 196.708 252.019 196.555 251.02 197.368L82.305 334.825C81.306 335.638 81.1536 337.111 81.9663 338.127C82.2203 338.432 82.542 338.669 82.8807 338.804Z" fill="#91473E"/>
<path d="M62.9174 341.378C62.3755 342.597 62.0708 343.935 62.02 345.306C61.9861 346.238 61.1733 346.949 60.259 346.932C59.497 346.881 58.8705 346.356 58.7012 345.662C59.8695 344.392 61.3935 342.783 62.9174 341.378Z" fill="white"/>
<path d="M87.6895 346.339C87.5879 349.065 86.7244 351.656 85.2174 353.874C84.6078 354.805 83.8797 355.669 83.0331 356.448C80.3239 358.937 76.8358 360.292 73.1784 360.292C72.9752 360.292 72.772 360.292 72.5858 360.275C71.6376 360.241 70.9095 359.462 70.9603 358.514C70.9941 357.582 71.773 356.871 72.7212 356.905C75.7014 357.007 78.546 355.974 80.7303 353.959C82.9146 351.927 84.1845 349.184 84.32 346.204V345.831C84.3707 339.854 79.6466 334.859 73.6187 334.605C70.6216 334.504 67.7939 335.536 65.6096 337.551C64.4244 338.635 63.51 339.939 62.9174 341.378C61.3935 342.783 59.8695 344.392 58.7012 345.662C58.6504 345.51 58.6335 345.34 58.6335 345.171C58.7859 341.276 60.4453 337.704 63.3068 335.062C66.1684 332.438 69.8935 331.066 73.7541 331.219C77.6316 331.371 81.2213 333.03 83.8628 335.892C86.4873 338.754 87.8588 342.462 87.6895 346.339Z" fill="#91473E"/>
<path d="M212.752 231.521C214.784 234.704 209.891 236.922 209.891 236.922C209.891 236.922 212.16 242.408 214.937 242.764C217.73 243.119 220.186 239.411 220.186 239.411C220.186 239.411 221.54 239.005 223.724 238.344C225.926 237.684 226.908 235.009 226.908 235.009C226.908 235.009 228.872 235.618 229.498 234.23C230.125 232.841 231.141 229.269 229.058 223.342C227.246 218.127 221.828 214.012 220.558 213.081L206.064 218.229C204.997 222.513 206.47 233.383 206.47 233.383C206.47 233.383 211.499 229.539 212.752 231.504V231.521Z" fill="#F78575"/>
<path d="M220.186 239.817C220.186 239.817 220.05 239.817 219.982 239.767C219.779 239.648 219.712 239.394 219.813 239.191C221.777 235.584 219.644 230.996 219.61 230.945C219.508 230.742 219.61 230.488 219.813 230.386C220.016 230.285 220.27 230.386 220.372 230.589C220.473 230.792 222.725 235.618 220.541 239.614C220.457 239.75 220.321 239.834 220.169 239.834L220.186 239.817Z" fill="#050E04"/>
<path d="M226.908 235.432C226.908 235.432 226.84 235.432 226.806 235.432C226.586 235.381 226.434 235.144 226.501 234.924C227.568 230.572 225.553 227.186 225.536 227.152C225.418 226.949 225.485 226.695 225.672 226.576C225.875 226.458 226.129 226.526 226.247 226.712C226.332 226.864 228.466 230.42 227.314 235.127C227.263 235.313 227.094 235.449 226.908 235.449V235.432Z" fill="#050E04"/>
<path d="M200.866 222.733L228.753 214.148L217.984 206.935L202.559 210.88L200.866 222.733Z" fill="#5CAF50"/>
<path d="M113.461 230.708C113.461 230.708 104.249 241.426 103.572 243.322C102.895 245.202 102.929 255.074 105.655 253.313C108.381 251.552 111.971 240.478 111.971 240.478L113.461 230.725V230.708Z" fill="#F78575"/>
<path d="M110.227 245.253C110.227 245.253 116.847 242.679 119.133 237.515C121.419 232.35 113.461 232.604 113.461 232.604L107.704 242.103L110.227 245.253Z" fill="#F78575"/>
<path d="M112.072 244.796C111.886 244.796 111.717 244.677 111.666 244.474C111.615 244.254 111.75 244.017 111.971 243.966C112.055 243.949 120.301 241.731 120.301 235.076C120.301 234.839 120.488 234.653 120.725 234.653C120.962 234.653 121.148 234.839 121.148 235.076C121.148 242.391 112.275 244.762 112.191 244.779C112.157 244.779 112.123 244.779 112.089 244.779L112.072 244.796Z" fill="#050E04"/>
</g>
<defs>
<clipPath id="clip0_1650_6979">
<rect width="240" height="280.502" fill="white" transform="translate(56.5 129.249)"/>
</clipPath>
</defs>
</svg>
