<svg width="353" height="539" viewBox="0 0 353 539" fill="none" xmlns="http://www.w3.org/2000/svg">
<g clip-path="url(#clip0_1650_7143)">
<path d="M282.102 358.292C280.9 358.292 279.731 357.682 279.072 356.579C278.051 354.9 278.578 352.727 280.258 351.706C294.367 343.112 313.252 327.405 311.029 319.403C308.593 310.611 289.527 313.756 283.057 315.567C281.163 316.094 279.204 314.991 278.694 313.097C278.167 311.204 279.27 309.245 281.163 308.734C282.464 308.372 313.038 300.091 317.878 317.51C322.324 333.48 290.4 353.863 283.962 357.781C283.386 358.127 282.744 358.292 282.118 358.292H282.102Z" fill="#FCA338"/>
<path d="M259.875 377.588C240.266 377.588 224.378 361.7 224.378 342.091V304.404C224.378 300.403 227.621 297.176 231.606 297.176H288.144C292.128 297.176 295.372 300.42 295.372 304.404V342.091C295.372 361.7 279.484 377.588 259.875 377.588Z" fill="#FCA338"/>
<path d="M266.576 361.041H253.174V403.634H266.576V361.041Z" fill="#FCA338"/>
<path d="M248.432 394.958H271.301C279.566 394.958 286.284 401.675 286.284 409.94V412.311H233.433V409.94C233.433 401.675 240.151 394.958 248.416 394.958H248.432Z" fill="#FCA338"/>
<path d="M255.677 377.588C236.068 377.588 220.18 361.7 220.18 342.091V304.404C220.18 300.403 223.423 297.176 227.407 297.176H283.946C287.946 297.176 291.173 300.42 291.173 304.404V342.091C291.173 361.7 275.285 377.588 255.677 377.588Z" fill="#FFB655"/>
<path d="M262.361 361.058H248.959V403.651H262.361V361.058Z" fill="#FFB655"/>
<path d="M244.234 394.974H267.103C275.368 394.974 282.085 401.691 282.085 409.956V412.327H229.235V409.956C229.235 401.691 235.952 394.974 244.217 394.974H244.234Z" fill="#FFB655"/>
<path d="M227.177 358.292C226.551 358.292 225.909 358.127 225.333 357.781C218.895 353.863 186.971 333.496 191.417 317.51C196.257 300.091 226.831 308.372 228.132 308.734C230.025 309.261 231.128 311.22 230.602 313.097C230.075 314.991 228.115 316.094 226.238 315.567C219.752 313.772 200.702 310.628 198.249 319.403C196.027 327.405 214.911 343.112 229.021 351.706C230.7 352.727 231.227 354.916 230.206 356.579C229.531 357.682 228.362 358.292 227.177 358.292Z" fill="#FFB655"/>
<path d="M262.377 304.668H229.251C229.037 304.668 228.856 304.487 228.856 304.272C228.856 304.058 229.037 303.877 229.251 303.877H262.377C262.591 303.877 262.773 304.058 262.773 304.272C262.773 304.487 262.591 304.668 262.377 304.668Z" fill="#FFDD92"/>
<path d="M236.347 404.046C236.347 404.046 236.265 404.046 236.232 404.029C236.018 403.963 235.903 403.749 235.969 403.535C235.985 403.486 237.73 397.987 245.814 397.987C246.028 397.987 246.21 398.168 246.21 398.382C246.21 398.596 246.028 398.777 245.814 398.777C238.34 398.777 236.792 403.552 236.743 403.749C236.693 403.914 236.529 404.029 236.364 404.029L236.347 404.046Z" fill="#FFDD92"/>
<path d="M239.64 167.142C239.64 167.142 237.302 196.465 218.402 205.24C204.72 211.595 201.048 186.174 201.048 186.174C201.048 186.174 220.196 175.456 224.839 164.952C229.482 154.448 239.64 167.142 239.64 167.142Z" fill="#F48462"/>
<path d="M109.721 237.461C109.721 237.461 139.867 239.864 150.915 229.574C161.962 219.284 139.456 209.982 139.456 209.982C139.456 209.982 121.888 220.815 110.511 222.248C99.1181 223.68 109.738 237.461 109.738 237.461H109.721Z" fill="#F48462"/>
<path d="M223.95 362.227L233.236 370.722L251.857 356.02L240.892 347.458L223.95 362.227Z" fill="#F48462"/>
<path d="M264.205 370.755C265.407 369.471 265.325 367.429 264.04 366.096C258.936 360.844 247.049 348.792 246.078 349.747C244.843 350.949 236.792 366.013 236.792 366.013C236.792 366.013 229.383 359.082 225.514 365.371C222.55 370.195 222.485 379.251 222.616 383.202C222.649 384.453 222.336 385.672 221.694 386.709C218.912 391.171 211.717 403.931 216.755 409.413C222.913 416.114 224.839 412.788 226.074 411.586C227.144 410.549 256.039 379.547 264.205 370.788V370.755Z" fill="#E3BF96"/>
<path d="M202.497 245.232C202.497 245.232 210.021 279.28 225.069 307.779C240.118 336.279 247.296 344.412 247.296 344.412L215.882 373.06C215.882 373.06 179.925 330.714 175.479 301.852C171.034 272.99 171.38 247.076 171.38 247.076L202.497 245.232Z" fill="#5CAF50"/>
<path d="M133.94 211.2L138.171 236.588C138.171 236.588 163.213 236.884 167.856 218.642C172.516 200.4 165.782 191.245 165.782 191.245C165.782 191.245 144.444 204.367 133.924 211.2H133.94Z" fill="#F7B369"/>
<path d="M183.596 160.852C183.596 160.852 198.2 160.095 203.781 170.517C209.363 180.939 206.514 207.117 206.514 207.117L185.934 206.919L183.596 160.852Z" fill="#050E04"/>
<path d="M158.439 375.81L158.57 387.927L182.378 392.224L182.032 376.122L158.439 375.81Z" fill="#F48462"/>
<path d="M182.378 412.327C184.139 412.261 185.539 410.763 185.555 408.919C185.671 401.609 185.045 383.614 183.678 383.597C181.95 383.564 165.617 388.536 165.617 388.536C165.617 388.536 165.271 378.394 158.093 380.107C152.594 381.424 146.14 387.779 143.44 390.66C142.584 391.582 141.497 392.208 140.312 392.488C135.191 393.673 121.065 397.608 120.769 405.05C120.39 414.138 124.094 413.15 125.823 413.183C127.305 413.2 170.392 412.755 182.361 412.344L182.378 412.327Z" fill="#E3BF96"/>
<path d="M178.772 189.072L208.26 180.28L219.439 207.776L203.798 218.082L203.32 248.673C203.32 248.673 196.257 250.155 186.856 250.467C177.455 250.78 181.028 209.422 181.028 209.422L178.789 189.072H178.772Z" fill="#F7B369"/>
<path d="M113.574 237.345C113.574 237.345 102.609 238.876 96.0064 237.263C89.4042 235.649 87.6096 233.394 87.7578 232.241C87.906 231.089 92.3184 231.056 92.3184 231.056C92.3184 231.056 86.1607 229.344 86.5394 226.825C86.9181 224.322 92.5159 225.145 92.5159 225.145C92.5159 225.145 88.4163 222.89 89.7993 221.177C91.1823 219.465 99.4474 221.54 99.4474 221.54C99.4474 221.54 94.7221 217.489 95.7759 216.156C96.8296 214.822 106.494 217.391 108.816 219.333C111.137 221.26 113.458 225.112 113.458 225.112L113.541 237.345H113.574Z" fill="#F48462"/>
<path d="M93.438 315.452C93.438 315.452 93.3721 315.452 93.3227 315.452C92.4501 315.386 91.7751 314.628 91.8409 313.756L104.387 127.035C104.453 126.162 105.177 125.487 106.082 125.553C106.955 125.619 107.63 126.376 107.564 127.249L95.0185 313.97C94.9691 314.81 94.2612 315.452 93.4215 315.452H93.438Z" fill="#E3BF96"/>
<path d="M107.367 132.567L34.71 163.404L102.921 198.671L107.367 132.567Z" fill="#5CAF50"/>
<path d="M238.949 169.315C238.949 169.315 244.201 159.585 244.991 152.818C245.781 146.051 244.283 143.598 243.164 143.335C242.028 143.088 240.464 147.204 240.464 147.204C240.464 147.204 240.99 140.832 238.504 140.322C236.018 139.811 234.833 145.343 234.833 145.343C234.833 145.343 234.141 140.717 232.05 141.408C229.959 142.1 229.037 150.579 229.037 150.579C229.037 150.579 226.897 144.734 225.267 145.261C223.637 145.788 222.699 155.749 223.703 158.597C224.707 161.445 227.506 164.969 227.506 164.969L238.932 169.315H238.949Z" fill="#F48462"/>
<path d="M240.447 147.22C240.447 147.22 243.526 139.35 245.304 145.179C246.654 149.607 244.909 157.757 242.818 157.642C240.727 157.527 239.64 153.081 239.64 153.081C239.64 153.081 238.636 156.325 236.117 155.436C233.812 154.613 233.68 150.727 233.68 150.727C233.68 150.727 233.236 154.645 230.634 153.625C226.815 152.11 229.894 141.82 231.935 140.519C234.652 138.79 234.487 143.878 234.487 143.878C234.487 143.878 237.006 138.445 239.393 140.684C241.781 142.923 240.447 147.237 240.447 147.237V147.22Z" fill="#F48462"/>
<path d="M233.73 162.087C233.499 162.087 233.318 161.906 233.318 161.676C233.318 152.67 228.692 150.431 228.659 150.414C228.461 150.315 228.362 150.068 228.461 149.871C228.56 149.657 228.79 149.574 229.004 149.673C229.218 149.772 234.174 152.11 234.158 161.692C234.158 161.923 233.977 162.104 233.746 162.104L233.73 162.087Z" fill="#050E04"/>
<path d="M242.538 157.938C242.538 157.938 242.406 157.938 242.341 157.938C241.336 157.872 240.529 157.132 239.937 155.732C239.41 154.481 239.229 153.048 239.443 151.6L240.052 147.154C240.085 146.924 240.282 146.776 240.513 146.808C240.743 146.841 240.892 147.039 240.859 147.269L240.25 151.715C240.068 153.032 240.217 154.3 240.694 155.419C241.155 156.506 241.731 157.082 242.39 157.115C243.658 157.197 243.97 156.193 244.003 156.078C244.069 155.864 244.283 155.732 244.514 155.798C244.728 155.864 244.86 156.078 244.81 156.292C244.662 156.885 243.987 157.938 242.555 157.938H242.538Z" fill="#050E04"/>
<path d="M236.66 155.88C236.463 155.88 236.265 155.88 236.051 155.831C233.055 155.353 233.252 150.875 233.269 150.694L234.092 143.812C234.125 143.582 234.322 143.417 234.553 143.45C234.783 143.483 234.948 143.68 234.915 143.911L234.108 150.776C234.108 150.776 233.944 154.662 236.216 155.041C238.488 155.403 239.245 153.065 239.278 152.966C239.344 152.752 239.574 152.637 239.789 152.703C240.003 152.769 240.118 152.999 240.052 153.213C239.739 154.201 238.669 155.897 236.677 155.897L236.66 155.88Z" fill="#050E04"/>
<path d="M232.017 153.938C231.803 153.938 231.622 153.773 231.606 153.559C231.606 153.328 231.77 153.131 231.984 153.114C232.841 153.065 233.186 151.287 233.252 150.678C233.269 150.447 233.45 150.282 233.697 150.299C233.927 150.315 234.092 150.529 234.059 150.743C234.026 151.056 233.713 153.822 232.017 153.921C232.017 153.921 232.001 153.921 231.984 153.921L232.017 153.938Z" fill="#050E04"/>
<path d="M155.986 245.973C155.986 245.973 142.139 284.087 138.369 310.183C134.615 336.279 147.605 378.641 147.605 378.641L187.613 378.082C187.613 378.082 180.089 336.081 178.723 323.305C177.702 309.245 184.88 248.36 184.88 248.36L155.986 245.956V245.973Z" fill="#5CAF50"/>
<path d="M199.863 268.463C193.639 268.463 190.774 262.124 190.742 262.058C190.643 261.844 190.742 261.614 190.956 261.515C191.153 261.432 191.4 261.515 191.499 261.729C191.631 262.042 194.973 269.352 202.415 267.277C202.629 267.211 202.859 267.343 202.925 267.557C202.991 267.771 202.859 268.002 202.645 268.068C201.657 268.347 200.735 268.463 199.879 268.463H199.863Z" fill="#E3BF96"/>
<path d="M216.228 305.326C215.932 305.326 215.668 305.244 215.421 305.063C214.664 304.503 214.582 303.91 214.648 303.515C214.96 301.506 219.9 299.778 220.46 299.58C220.608 299.531 220.789 299.58 220.904 299.695C221.019 299.827 221.036 300.008 220.953 300.156C220.707 300.634 218.467 304.849 216.558 305.293C216.442 305.326 216.327 305.326 216.212 305.326H216.228ZM219.702 300.733C217.842 301.49 215.619 302.675 215.471 303.63C215.471 303.729 215.405 304.009 215.915 304.404C216.047 304.503 216.195 304.536 216.376 304.486C217.414 304.256 218.83 302.198 219.686 300.749L219.702 300.733Z" fill="#E3BF96"/>
<path d="M178.772 314.398C178.624 314.398 178.476 314.316 178.393 314.167C173.635 303.877 171.561 275.312 171.314 271.937L159.822 268.446C159.608 268.38 159.476 268.15 159.542 267.936C159.608 267.722 159.838 267.59 160.052 267.656L171.808 271.229C171.972 271.278 172.088 271.426 172.104 271.591C172.12 271.904 174.244 303.252 179.118 313.805C179.217 314.019 179.118 314.25 178.92 314.349C178.871 314.381 178.805 314.381 178.756 314.381L178.772 314.398Z" fill="#E3BF96"/>
<path d="M92.3348 231.072C92.3348 231.072 83.8887 231.221 88.7292 234.909C92.4007 237.708 100.666 238.909 101.275 236.917C101.884 234.909 98.1138 232.357 98.1138 232.357C98.1138 232.357 101.505 232.554 101.538 229.871C101.571 227.434 97.9656 225.936 97.9656 225.936C97.9656 225.936 101.802 226.874 101.736 224.092C101.654 219.992 90.9189 219.284 88.9926 220.749C86.4407 222.692 91.2482 224.306 91.2482 224.306C91.2482 224.306 85.2717 224.767 86.5394 227.796C87.8072 230.809 92.3184 231.072 92.3184 231.072H92.3348Z" fill="#F48462"/>
<path d="M109.787 230.891C103.514 230.891 102.74 223.927 102.724 223.845C102.707 223.614 102.872 223.417 103.086 223.4C103.333 223.367 103.514 223.548 103.531 223.762C103.563 224.042 104.304 230.661 110.594 230.019C110.824 229.986 111.022 230.167 111.038 230.381C111.055 230.611 110.89 230.809 110.676 230.825C110.363 230.858 110.067 230.875 109.77 230.875L109.787 230.891Z" fill="#050E04"/>
<path d="M99.4968 238.3C99.4968 238.3 99.3815 238.3 99.3322 238.3C99.1017 238.284 98.937 238.07 98.9699 237.856C98.9864 237.625 99.1675 237.477 99.4145 237.493C99.5462 237.493 100.583 237.543 100.946 236.341C101.143 235.699 100.797 234.974 99.9413 234.151C99.0687 233.328 97.9162 232.735 96.632 232.439L92.2525 231.468C92.0385 231.418 91.8903 231.204 91.9397 230.974C91.9891 230.76 92.2196 230.611 92.4336 230.661L96.8131 231.632C98.2455 231.945 99.5297 232.604 100.518 233.542C101.621 234.579 102.032 235.6 101.752 236.555C101.341 237.938 100.188 238.3 99.5297 238.3H99.4968Z" fill="#050E04"/>
<path d="M98.262 232.768C98.262 232.768 98.1303 232.768 98.0809 232.768C97.8504 232.768 97.6857 232.571 97.6857 232.34C97.6857 232.11 97.9327 231.912 98.1138 231.945C98.2126 231.945 100.682 232.044 101.127 229.788C101.571 227.533 97.8833 226.347 97.8339 226.331L91.1494 224.717C90.9354 224.668 90.7872 224.437 90.8531 224.223C90.9025 224.009 91.133 223.878 91.347 223.927L98.0644 225.557C98.2784 225.623 102.526 227.006 101.934 229.969C101.489 232.225 99.4309 232.785 98.262 232.785V232.768Z" fill="#050E04"/>
<path d="M99.4639 226.545C98.7065 226.545 98.015 226.364 97.8668 226.331C97.6528 226.265 97.5211 226.051 97.5705 225.82C97.6363 225.606 97.8668 225.475 98.0809 225.524C98.6736 225.689 100.468 225.952 100.814 225.178C100.913 224.964 101.143 224.882 101.357 224.964C101.571 225.063 101.654 225.293 101.571 225.508C101.209 226.314 100.304 226.528 99.4803 226.528L99.4639 226.545Z" fill="#050E04"/>
<path d="M155.739 234.481C154.998 242.466 154.57 248.936 154.57 248.936C154.57 248.936 162.933 250.566 176.681 250.78C182.822 250.879 188.815 250.401 193.557 249.825C193.557 249.825 184.074 189.747 183.382 189.764C177.949 189.978 172.713 186.948 164.498 192.052C157.056 196.662 154.866 218.724 154.866 218.724C154.866 218.724 156.595 225.079 155.722 234.464L155.739 234.481Z" fill="#F7B369"/>
<path d="M183.283 180.28L183.382 189.764C183.382 189.764 182.378 192.826 176.829 193.336C172.697 193.715 170.556 192.48 170.556 192.48L171.083 187.673L171.594 182.98L181.587 180.675L183.267 180.28H183.283Z" fill="#F48462"/>
<path d="M181.604 180.675C181.587 180.939 181.489 181.235 181.34 181.597C179.266 186.356 173.471 187.442 171.083 187.689L171.594 182.997L181.587 180.692L181.604 180.675Z" fill="#050E04"/>
<path d="M169.256 161.379C169.256 161.379 164.399 173.332 166.44 179.918C168.482 186.504 174.491 185.302 178.081 183.919C181.67 182.536 183.283 180.28 183.283 180.28C183.283 180.28 186.691 181.334 188.865 178.14C191.038 174.946 189.556 171.373 187.597 170.583C185.638 169.809 183.382 171.258 183.382 171.258L185.094 167.784C185.094 167.784 177.076 150.529 169.239 161.379H169.256Z" fill="#F48462"/>
<path d="M168.63 172.592C168.35 172.559 168.186 172.345 168.219 172.114L168.531 169.941L167.725 169.611C167.511 169.529 167.412 169.282 167.494 169.068C167.576 168.854 167.823 168.755 168.037 168.838L169.141 169.299C169.322 169.365 169.42 169.546 169.387 169.743L169.042 172.229C169.009 172.427 168.844 172.575 168.63 172.575V172.592Z" fill="#050E04"/>
<path d="M175.364 173.085C175.101 173.069 174.936 172.855 174.952 172.641L175.166 170.418L174.327 169.957C174.129 169.842 174.063 169.595 174.162 169.397C174.277 169.2 174.524 169.134 174.722 169.233L175.792 169.825C175.94 169.908 176.023 170.056 176.006 170.221L175.759 172.707C175.743 172.921 175.562 173.085 175.348 173.085H175.364Z" fill="#050E04"/>
<path d="M183.464 171.735C183.464 171.735 177.834 170.385 175.38 166.862C173.141 163.635 172.302 159.898 172.302 159.898C172.302 159.898 171.083 160.836 169.602 163.026C168.433 164.738 167.445 166.829 167.445 166.829C167.445 166.829 165.453 158.992 172.549 156.325C179.645 153.674 185.654 158.399 187.449 162.828C189.243 167.257 183.464 171.719 183.464 171.719V171.735Z" fill="#050E04"/>
<path d="M187.185 170.122C187.185 170.122 187.119 170.122 187.086 170.122C186.872 170.072 186.724 169.842 186.79 169.628C187.926 164.936 186.51 162.334 186.494 162.318C186.379 162.12 186.444 161.873 186.642 161.758C186.84 161.643 187.086 161.709 187.202 161.906C187.268 162.021 188.799 164.787 187.58 169.825C187.531 170.007 187.366 170.138 187.185 170.138V170.122Z" fill="#E3BF96"/>
<path d="M176.714 167.899C176.714 167.899 176.648 167.899 176.632 167.899L173.569 167.224C173.355 167.175 173.207 166.961 173.257 166.73C173.306 166.516 173.536 166.368 173.75 166.417L176.813 167.092C177.027 167.142 177.175 167.356 177.126 167.586C177.076 167.784 176.912 167.916 176.73 167.916L176.714 167.899Z" fill="#050E04"/>
<path d="M167.445 167.257C167.247 167.257 167.066 167.109 167.033 166.895C167 166.664 167.165 166.467 167.395 166.434L169.503 166.17C169.75 166.138 169.931 166.302 169.964 166.533C169.997 166.763 169.832 166.961 169.601 166.994L167.494 167.257C167.494 167.257 167.461 167.257 167.445 167.257Z" fill="#050E04"/>
<path d="M171.1 176.411C170.985 176.411 170.886 176.362 170.803 176.279C169.157 174.534 170.952 171.093 171.017 170.945C171.116 170.747 171.363 170.665 171.577 170.78C171.775 170.879 171.857 171.143 171.758 171.34C171.314 172.18 170.375 174.633 171.413 175.72C171.561 175.884 171.561 176.148 171.396 176.296C171.314 176.362 171.215 176.411 171.116 176.411H171.1Z" fill="#050E04"/>
<path d="M173.734 179.26C173.553 179.26 173.372 179.128 173.339 178.93C173.289 178.716 173.421 178.486 173.652 178.436C173.718 178.436 175.051 178.091 175.43 176.592C175.479 176.378 175.71 176.247 175.924 176.296C176.138 176.345 176.27 176.576 176.22 176.79C175.71 178.782 173.899 179.21 173.833 179.227C173.8 179.227 173.767 179.227 173.75 179.227L173.734 179.26Z" fill="#050E04"/>
<path d="M183.958 176.263C183.843 176.263 183.728 176.214 183.645 176.115C183.497 175.934 183.514 175.687 183.695 175.539L187.531 172.328C187.712 172.18 187.959 172.196 188.107 172.377C188.255 172.559 188.239 172.806 188.058 172.954L184.222 176.164C184.222 176.164 184.057 176.263 183.958 176.263Z" fill="#050E04"/>
<path d="M187.663 175.637C187.663 175.637 187.613 175.637 187.58 175.637L185.226 175.143C185.012 175.094 184.864 174.88 184.913 174.65C184.963 174.435 185.16 174.287 185.407 174.337L187.762 174.831C187.976 174.88 188.124 175.094 188.074 175.325C188.041 175.522 187.86 175.654 187.679 175.654L187.663 175.637Z" fill="#050E04"/>
<path d="M174.969 193.633C173.586 193.633 172.071 193.419 170.441 192.875C170.227 192.81 170.112 192.579 170.178 192.349C170.244 192.135 170.491 192.019 170.705 192.085C178.262 194.588 183.168 189.747 183.217 189.698C183.382 189.533 183.629 189.533 183.794 189.698C183.958 189.862 183.958 190.126 183.794 190.274C183.744 190.323 180.402 193.633 174.969 193.633Z" fill="white"/>
<path d="M156.743 228.735C156.496 228.735 156.331 228.537 156.331 228.306L156.562 220.881C152.857 205.619 158.538 199.115 158.768 198.835C158.916 198.671 159.18 198.654 159.344 198.803C159.509 198.951 159.525 199.214 159.377 199.379C159.328 199.445 153.746 205.899 157.369 220.733C157.369 220.766 157.369 220.799 157.369 220.848L157.122 228.323C157.122 228.553 156.924 228.718 156.71 228.718L156.743 228.735Z" fill="white"/>
</g>
<defs>
<clipPath id="clip0_1650_7143">
<rect width="283.58" height="287.894" fill="white" transform="translate(34.71 125.553)"/>
</clipPath>
</defs>
</svg>
