<svg width="353" height="539" viewBox="0 0 353 539" fill="none" xmlns="http://www.w3.org/2000/svg">
<g clip-path="url(#clip0_1650_7055)">
<path d="M141.292 282.651C141.292 282.651 109.117 289.911 92.2627 289.899C75.4079 289.899 93.3437 315.501 93.3437 315.501C93.3437 315.501 151.992 323.707 152.114 308.044C152.237 292.38 141.292 282.651 141.292 282.651Z" fill="#F48462"/>
<path d="M209.694 314.751C209.694 314.751 230.738 348.584 236.352 364.48C241.966 380.377 259.89 354.358 259.89 354.358C259.89 354.358 242.74 289.96 226.573 288.044C211.02 286.201 209.694 314.751 209.694 314.751Z" fill="#F48462"/>
<path d="M93.3438 315.488L80.3341 315.857L77.9877 289.064L92.275 289.899L93.3438 315.488Z" fill="white"/>
<path d="M65.666 285.403L57.0052 284.948L50.7153 284.629L39.3764 356.385C39.3764 356.385 42.1774 356.925 45.6785 356.655C49.8062 356.323 54.9167 354.837 57.6071 349.96C66.833 333.215 78.2825 319.899 80.7886 318.056C81.9188 317.22 82.6191 315.82 82.6314 314.334L82.1154 291.496C82.1154 289.432 80.8255 287.7 79.0196 287.344L73.1106 286.189C70.6536 285.71 68.1721 285.452 65.666 285.415V285.403Z" fill="#91473E"/>
<path d="M57.0052 284.96L50.7153 284.641L50.6662 284.924L45.9979 284.187L44.6835 292.528L49.3517 293.265L48.1724 300.747L43.5041 300.009L42.1773 308.437L46.8456 309.174L45.7645 316.053L41.0963 315.316L39.7572 323.756L44.4255 324.493L43.2584 331.839L38.5902 331.102L37.2511 339.542L41.9194 340.279L40.6909 348.055L36.0226 347.318L34.7082 355.66L39.3764 356.397C39.3764 356.397 42.1774 356.937 45.6785 356.667L57.0175 284.973L57.0052 284.96Z" fill="#5CAF50"/>
<path d="M67.4841 334.198C67.3122 334.198 67.1525 334.088 67.091 333.916L63.9707 324.96C63.897 324.739 64.0075 324.505 64.2287 324.432C64.4498 324.358 64.6832 324.469 64.7569 324.69L67.8773 333.645C67.951 333.866 67.8404 334.1 67.6193 334.174C67.5701 334.186 67.521 334.198 67.4841 334.198Z" fill="white"/>
<path d="M71.7101 328.67C71.5381 328.67 71.3784 328.559 71.317 328.388L68.1967 319.432C68.123 319.211 68.2335 318.977 68.4546 318.904C68.6758 318.83 68.9092 318.94 68.9829 319.162L72.1032 328.117C72.177 328.338 72.0664 328.572 71.8453 328.645C71.7961 328.658 71.747 328.67 71.7101 328.67Z" fill="white"/>
<path d="M78.0245 339.444C77.6437 339.444 77.2752 339.37 76.9066 339.235C73.2212 337.847 71.3662 329.788 71.2802 329.456C71.231 329.235 71.3662 329.002 71.5996 328.953C71.8207 328.903 72.0541 329.039 72.1032 329.272C72.1155 329.346 73.9337 337.22 77.2015 338.461C78.0491 338.78 78.9213 338.608 79.855 337.92C80.7272 337.282 81.1203 336.581 81.0589 335.771C80.7886 332.343 72.9263 328.252 72.7052 328.142C72.6315 328.105 72.5701 328.056 72.5332 327.982C72.4104 327.786 72.4841 327.528 72.6806 327.405C72.9263 327.257 78.7985 323.854 81.9434 324.751C82.6805 324.96 83.221 325.39 83.565 326.016C83.9581 326.754 83.7861 327.27 83.565 327.564C82.5454 329.014 77.8894 328.768 74.9656 328.461C77.4963 329.984 81.6731 332.921 81.8943 335.709C81.9803 336.827 81.4643 337.798 80.3464 338.608C79.5724 339.174 78.7862 339.456 78.0245 339.456V339.444ZM74.2162 327.515C77.6069 327.933 82.14 328.105 82.8648 327.073C82.9139 327.012 83.0368 326.827 82.8034 326.397C82.5699 325.967 82.2137 325.697 81.6977 325.55C79.6584 324.972 76.0467 326.582 74.2162 327.515Z" fill="white"/>
<path d="M259.889 354.358L264.865 366.397L240.664 378.117L236.352 364.48L259.889 354.358Z" fill="white"/>
<path d="M133.749 277.16L143.589 326.115C152.618 325.193 161.476 323.375 169.055 320.206C189.657 311.594 198.969 292.159 198.969 292.159L172.041 253.794C172.041 253.794 157.888 270.833 136.513 276.472C135.604 276.705 134.695 276.938 133.749 277.16Z" fill="#5CAF50"/>
<path d="M241.622 390.93L244.288 399.185L246.229 405.18L317.321 390.242C317.321 390.242 316.842 387.441 315.331 384.259C313.55 380.524 310.343 376.274 304.827 375.5C285.897 372.834 269.373 366.876 266.757 365.181C265.565 364.419 264.017 364.259 262.617 364.787L241.462 373.399C239.533 374.124 238.379 375.954 238.686 377.773L239.705 383.706C240.135 386.163 240.774 388.583 241.634 390.942L241.622 390.93Z" fill="#91473E"/>
<path d="M244.288 399.185L246.229 405.18L246.511 405.119L247.482 409.738L255.749 408.006L254.779 403.386L262.199 401.826L263.17 406.445L271.523 404.689L270.553 400.07L277.371 398.632L278.341 403.251L286.695 401.495L285.725 396.875L292.997 395.352L293.968 399.971L302.321 398.215L301.351 393.595L309.053 391.974L310.024 396.593L318.279 394.861L317.309 390.242C317.309 390.242 316.83 387.441 315.319 384.259L244.275 399.185H244.288Z" fill="#5CAF50"/>
<path d="M278.931 378.547C278.808 378.547 278.698 378.497 278.612 378.399C278.464 378.227 278.489 377.957 278.661 377.809L285.909 371.704C286.081 371.556 286.351 371.581 286.498 371.753C286.646 371.925 286.621 372.195 286.449 372.343L279.201 378.448C279.128 378.51 279.029 378.547 278.931 378.547Z" fill="white"/>
<path d="M272.26 376.569C272.137 376.569 272.027 376.519 271.941 376.421C271.793 376.249 271.818 375.979 271.99 375.832L279.25 369.726C279.422 369.579 279.693 369.603 279.84 369.775C279.987 369.947 279.963 370.217 279.791 370.365L272.531 376.47C272.457 376.532 272.359 376.569 272.26 376.569Z" fill="white"/>
<path d="M280.553 370.095C280.417 370.095 280.282 370.033 280.209 369.91C280.086 369.714 280.135 369.456 280.332 369.333C280.393 369.284 287.113 364.787 287.1 361.299C287.1 360.39 286.621 359.64 285.651 359.014C284.742 358.424 283.943 358.301 283.206 358.657C280.098 360.132 279.078 368.927 279.054 369.185C279.054 369.259 279.017 369.345 278.968 369.407C278.82 369.591 278.562 369.615 278.378 369.468C278.157 369.284 272.887 365.009 272.604 361.765C272.531 361.004 272.739 360.34 273.206 359.8C273.759 359.173 274.3 359.149 274.656 359.247C276.376 359.689 277.801 364.124 278.55 366.962C279.078 364.05 280.331 359.1 282.862 357.896C283.87 357.417 284.963 357.564 286.118 358.313C287.322 359.1 287.936 360.107 287.948 361.299C287.96 365.242 281.093 369.837 280.811 370.033C280.737 370.082 280.663 370.107 280.577 370.107L280.553 370.095ZM274.324 360.033C274.214 360.033 274.042 360.082 273.821 360.34C273.501 360.709 273.378 361.139 273.415 361.679C273.599 363.792 276.4 366.593 277.911 367.969C277.088 364.652 275.639 360.353 274.422 360.046C274.398 360.046 274.361 360.033 274.324 360.033Z" fill="white"/>
<path d="M244.288 302.454L202.089 323.768C202.089 323.768 191.807 311.508 182.188 295.329C168.294 271.975 157.09 254.408 160.702 234.347C163.466 219.003 214.399 242.357 214.399 242.357C214.399 242.357 234.091 279.899 244.3 302.442L244.288 302.454Z" fill="#5CAF50"/>
<path d="M158.65 174.225C158.65 174.225 146.255 178.979 135.702 188.93C124.83 199.175 120.014 222.529 120.014 222.529L134.166 229.359C134.166 229.359 143.945 213.819 153.085 208.721C162.225 203.623 169.94 200.76 169.94 200.76L158.638 174.225H158.65Z" fill="#F48462"/>
<path d="M227.408 209.273C227.408 209.273 241.339 215.956 256.241 207.836C270.577 200.023 282.064 177.357 282.064 177.357L272.727 165.896C272.727 165.896 255.528 179.028 245.541 182.161C235.553 185.293 227.421 186.534 227.421 186.534V209.286L227.408 209.273Z" fill="#F48462"/>
<path d="M139.068 221.669C139.068 221.669 129.621 239.457 126.279 242.762C122.938 246.067 113.086 254.985 111.882 252.565C110.665 250.108 116.304 244.236 116.304 244.236C116.304 244.236 110.211 249.691 108.282 249.912C106.353 250.133 105.85 247.578 108.147 244.371C110.444 241.153 115.8 235.649 115.8 235.649C115.8 235.649 107.275 239.789 105.1 240.981C102.287 242.541 98.4297 240.833 103.172 236.853C106.329 234.199 111.992 230.195 111.992 230.195C111.992 230.195 102.385 232.369 101.783 231.362C101.181 230.354 101.587 229.408 103.946 227.885C106.304 226.349 114.977 223.77 115.985 222.639C116.39 222.173 117.312 220.797 118.257 219.323C119.928 216.706 123.196 215.625 126.083 216.73L139.056 221.706L139.068 221.669Z" fill="#F48462"/>
<path d="M117.176 244.187C117.066 244.187 116.955 244.15 116.882 244.064C116.722 243.905 116.722 243.634 116.882 243.475L122.459 237.946C122.619 237.787 122.889 237.787 123.049 237.946C123.208 238.106 123.208 238.376 123.049 238.536L117.471 244.064C117.385 244.15 117.287 244.187 117.176 244.187Z" fill="#050E04"/>
<path d="M116.009 236.386C115.874 236.386 115.751 236.325 115.665 236.214C115.53 236.03 115.579 235.76 115.764 235.625L120.1 232.541C120.284 232.406 120.555 232.455 120.69 232.639C120.825 232.824 120.776 233.094 120.592 233.229L116.255 236.313C116.181 236.362 116.095 236.386 116.009 236.386Z" fill="#050E04"/>
<path d="M110.911 231.116C110.739 231.116 110.579 231.018 110.518 230.846C110.432 230.625 110.543 230.391 110.764 230.305L117.029 227.959C117.25 227.873 117.483 227.983 117.569 228.204C117.655 228.426 117.545 228.659 117.324 228.745L111.059 231.091C111.059 231.091 110.96 231.116 110.911 231.116Z" fill="#050E04"/>
<path d="M268.759 171.706C268.759 171.706 269.337 162.972 270.295 160.908C271.253 158.844 275.798 156.768 275.798 156.768C275.798 156.768 283.206 151.707 285.368 152.407C287.518 153.107 287.997 157.1 287.997 157.1C287.997 157.1 295.982 163.918 296.363 169.937C296.744 175.957 278.108 183.18 278.108 183.18L268.771 178.697V171.719L268.759 171.706Z" fill="#F48462"/>
<path d="M238.624 215.625V183.438C238.624 183.438 227.543 173.5 198.969 168.463C169.94 163.34 139.056 180.969 139.056 180.969L152.102 210.76L161.328 207.332L158.662 239.556L219.202 245.17L222.74 214.814L238.612 215.637L238.624 215.625Z" fill="#FFBA57"/>
<path d="M187.986 302.884C187.851 302.884 187.716 302.81 187.63 302.687C187.446 302.405 169.35 273.978 164.166 263.007C164.068 262.799 164.166 262.553 164.362 262.455C164.571 262.356 164.817 262.455 164.915 262.651C170.075 273.572 188.146 301.95 188.33 302.233C188.453 302.429 188.392 302.687 188.207 302.81C188.134 302.859 188.06 302.872 187.986 302.872V302.884Z" fill="white"/>
<path d="M166.254 256.054C166.254 256.054 166.132 256.054 166.07 256.054C165.837 256.054 165.652 255.858 165.652 255.624C165.652 255.391 165.812 255.207 166.082 255.207C166.132 255.207 166.193 255.207 166.254 255.207C175.259 255.207 177.913 245.035 177.937 244.924C177.999 244.703 178.22 244.568 178.441 244.617C178.662 244.678 178.797 244.9 178.748 245.121C178.723 245.231 175.923 256.03 166.254 256.03V256.054Z" fill="white"/>
<path d="M209.694 320.869C209.558 320.869 209.436 320.808 209.35 320.697C188.92 292.172 170.198 256.189 170.001 255.821C169.891 255.612 169.977 255.366 170.185 255.256C170.394 255.145 170.64 255.231 170.751 255.44C170.935 255.796 189.632 291.742 210.025 320.206C210.16 320.39 210.124 320.66 209.927 320.795C209.853 320.845 209.767 320.869 209.681 320.869H209.694Z" fill="white"/>
<path d="M135.444 285.992C135.247 285.992 135.063 285.845 135.026 285.636C134.989 285.403 135.149 285.194 135.37 285.157C153.343 282.307 168.392 271.865 168.539 271.754C168.724 271.619 168.994 271.668 169.129 271.853C169.264 272.037 169.215 272.307 169.031 272.442C168.883 272.553 153.675 283.106 135.505 285.98C135.481 285.98 135.456 285.98 135.444 285.98V285.992Z" fill="white"/>
<path d="M189.903 160.589L189.669 171.387C189.669 171.387 191.549 174.532 197.863 175.183C202.568 175.662 204.239 174.643 204.239 174.643L203.699 169.151L203.17 163.807L191.807 161.056L189.903 160.589Z" fill="#F48462"/>
<path d="M191.807 161.055C191.831 161.35 191.93 161.707 192.102 162.1C194.399 167.542 200.984 168.856 203.699 169.151L203.17 163.807L191.807 161.055Z" fill="#050E04"/>
<path d="M206.094 139.238C206.094 139.238 211.475 152.898 209.079 160.38C206.684 167.861 199.841 166.412 195.775 164.802C191.709 163.193 189.89 160.589 189.89 160.589C189.89 160.589 185.996 161.756 183.551 158.083C181.107 154.409 182.851 150.355 185.075 149.495C187.311 148.635 189.866 150.319 189.866 150.319L187.962 146.338C187.962 146.338 197.31 126.793 206.094 139.238Z" fill="#F48462"/>
<path d="M204.866 156.289C204.866 156.289 204.767 156.289 204.718 156.264C204.497 156.191 204.387 155.945 204.46 155.724C205.332 153.279 203.6 150.515 203.576 150.49C203.453 150.294 203.514 150.036 203.699 149.913C203.895 149.79 204.153 149.839 204.276 150.036C204.362 150.159 206.254 153.169 205.246 156.006C205.185 156.178 205.025 156.289 204.853 156.289H204.866Z" fill="#050E04"/>
<path d="M189.043 156.596C188.92 156.596 188.809 156.547 188.723 156.449L185.234 152.419C185.087 152.247 185.099 151.977 185.271 151.83C185.443 151.682 185.714 151.694 185.861 151.879L189.35 155.908C189.497 156.08 189.485 156.35 189.313 156.498C189.239 156.572 189.141 156.596 189.043 156.596Z" fill="#050E04"/>
<path d="M185.222 155.392C185.013 155.392 184.829 155.232 184.804 155.011C184.78 154.778 184.952 154.569 185.173 154.545L187.716 154.274C187.949 154.237 188.146 154.422 188.183 154.643C188.207 154.876 188.035 155.085 187.814 155.11L185.271 155.38C185.271 155.38 185.247 155.38 185.222 155.38V155.392Z" fill="#050E04"/>
<path d="M196.868 146.105C196.794 146.105 196.721 146.093 196.659 146.056C196.463 145.945 196.389 145.687 196.5 145.478C197.482 143.758 199.706 144.311 199.792 144.336C200.013 144.397 200.148 144.618 200.087 144.852C200.025 145.073 199.804 145.208 199.571 145.159C199.497 145.134 197.876 144.741 197.212 145.908C197.138 146.043 196.991 146.117 196.844 146.117L196.868 146.105Z" fill="#050E04"/>
<path d="M207.286 145.011C207.187 145.011 207.077 144.975 206.991 144.901C206.991 144.901 206.143 144.115 205.382 144.188C205.05 144.213 204.767 144.385 204.522 144.717C204.387 144.901 204.116 144.938 203.932 144.803C203.748 144.667 203.711 144.397 203.846 144.213C204.239 143.685 204.73 143.39 205.308 143.353C206.463 143.255 207.519 144.262 207.568 144.299C207.74 144.459 207.74 144.729 207.568 144.889C207.482 144.975 207.372 145.011 207.261 145.011H207.286Z" fill="#050E04"/>
<path d="M202.089 160.441C202.089 160.441 202.04 160.441 202.003 160.441C201.905 160.417 199.694 159.962 198.748 158.279C198.637 158.083 198.711 157.825 198.907 157.714C199.104 157.603 199.362 157.677 199.473 157.874C200.222 159.213 202.138 159.618 202.163 159.618C202.384 159.667 202.532 159.888 202.495 160.11C202.458 160.306 202.286 160.441 202.089 160.441Z" fill="#050E04"/>
<path d="M206.733 150.122C206.536 150.122 206.352 149.987 206.315 149.778L205.885 147.419C205.848 147.186 205.996 146.977 206.217 146.928C206.438 146.879 206.659 147.038 206.708 147.26L207.138 149.618C207.175 149.852 207.028 150.061 206.807 150.11C206.782 150.11 206.758 150.11 206.733 150.11V150.122Z" fill="#050E04"/>
<path d="M200.148 150.601C199.952 150.601 199.767 150.466 199.731 150.257L199.301 147.898C199.264 147.665 199.411 147.456 199.632 147.407C199.853 147.358 200.075 147.518 200.124 147.739L200.554 150.097C200.591 150.331 200.443 150.54 200.222 150.589C200.197 150.589 200.173 150.589 200.148 150.589V150.601Z" fill="#050E04"/>
<path d="M294.877 173.303C294.877 173.303 288.304 181.092 284.865 178.23C281.425 175.38 277.359 169.237 277.359 169.237L285.921 159.888L294.864 173.291L294.877 173.303Z" fill="#F48462"/>
<path d="M190.026 150.601C190.026 150.601 192.925 150.085 194.706 146.928C196.487 143.783 196.868 139.262 196.868 139.262C196.868 139.262 198.686 141.535 202.544 141.412C206.401 141.289 206.07 139.631 206.07 139.631L206.733 140.724C206.733 140.724 210.541 130.552 204.78 129.471C199.018 128.39 196.868 131.424 196.868 131.424C196.868 131.424 187.421 131.879 183.195 138.181C178.969 144.483 183.293 151.08 183.293 151.08C183.293 151.08 185.935 148.427 190.038 150.601H190.026Z" fill="#050E04"/>
<path d="M283.71 161.326C283.599 161.326 283.476 161.277 283.403 161.191C283.255 161.019 283.268 160.748 283.44 160.601L287.715 156.793C287.887 156.633 288.157 156.657 288.304 156.829C288.452 157.001 288.439 157.272 288.267 157.419L283.992 161.227C283.906 161.301 283.808 161.338 283.71 161.338V161.326Z" fill="#050E04"/>
<path d="M271.585 159.36C271.585 159.36 283.943 158.402 283.71 162.321C283.476 166.24 277.653 166.092 277.653 166.092C277.653 166.092 278.329 175.318 272.445 176.129L271.585 159.348V159.36Z" fill="#F48462"/>
<path d="M272.445 176.559C272.236 176.559 272.064 176.412 272.027 176.203C271.99 175.969 272.15 175.76 272.383 175.724C277.813 174.962 277.236 166.215 277.223 166.129C277.223 166.006 277.26 165.896 277.334 165.81C277.408 165.724 277.531 165.675 277.653 165.675C277.702 165.675 283.071 165.773 283.28 162.296C283.304 161.903 283.169 161.571 282.862 161.264C281.032 159.471 274.115 159.581 271.609 159.766C271.376 159.778 271.179 159.606 271.155 159.385C271.142 159.151 271.314 158.955 271.535 158.93C271.916 158.906 280.97 158.23 283.44 160.662C283.919 161.141 284.152 161.707 284.115 162.333C283.919 165.527 280.307 166.436 278.071 166.498C278.132 168.426 277.985 175.773 272.481 176.534C272.457 176.534 272.445 176.534 272.42 176.534L272.445 176.559Z" fill="#050E04"/>
<path d="M286.462 174.274C286.462 174.274 282.874 173.34 282.555 171.35C282.248 169.36 291.646 162.567 291.646 162.567L286.449 174.274H286.462Z" fill="#F48462"/>
<path d="M286.462 174.692C286.462 174.692 286.388 174.692 286.363 174.679C286.204 174.643 282.506 173.66 282.15 171.412C281.818 169.274 289.803 163.377 291.412 162.223C291.597 162.087 291.867 162.124 292.002 162.321C292.137 162.505 292.1 162.775 291.904 162.91C287.383 166.178 282.813 170.208 282.973 171.289C283.194 172.702 285.639 173.635 286.56 173.869C286.781 173.93 286.916 174.151 286.867 174.385C286.818 174.569 286.646 174.704 286.462 174.704V174.692Z" fill="#050E04"/>
<path d="M288.378 178.23C288.378 178.23 285.196 176.387 286.462 174.274C287.727 172.161 295.282 168.979 295.282 168.979L288.378 178.23Z" fill="#F48462"/>
<path d="M288.378 178.647C288.304 178.647 288.231 178.635 288.169 178.586C288.096 178.537 286.228 177.443 285.823 175.883C285.663 175.244 285.749 174.63 286.105 174.053C287.432 171.854 294.803 168.721 295.122 168.586C295.331 168.5 295.577 168.586 295.675 168.807C295.761 169.016 295.675 169.262 295.454 169.36C293.39 170.232 287.813 172.849 286.83 174.483C286.597 174.876 286.535 175.257 286.646 175.674C286.953 176.891 288.587 177.849 288.599 177.861C288.796 177.972 288.869 178.23 288.747 178.439C288.673 178.574 288.525 178.647 288.39 178.647H288.378Z" fill="#050E04"/>
<path d="M282.162 170.957C281.511 170.957 280.553 170.81 279.852 170.097C279.005 169.225 278.82 167.788 279.275 165.81C279.324 165.589 279.545 165.441 279.779 165.503C280 165.552 280.147 165.785 280.086 166.006C279.693 167.677 279.816 168.856 280.442 169.507C281.253 170.343 282.702 170.073 282.727 170.073C282.948 170.023 283.182 170.171 283.218 170.404C283.268 170.625 283.12 170.847 282.887 170.896C282.862 170.896 282.567 170.957 282.15 170.957H282.162Z" fill="#050E04"/>
<path d="M199.411 176.104C196.647 176.104 193.048 175.195 189.387 171.694C189.215 171.534 189.215 171.264 189.374 171.105C189.534 170.933 189.804 170.933 189.964 171.092C197.175 177.947 203.969 174.311 204.043 174.274C204.239 174.163 204.497 174.237 204.608 174.434C204.718 174.643 204.644 174.888 204.448 174.999C204.411 175.023 202.409 176.092 199.423 176.092L199.411 176.104Z" fill="#91473E"/>
<path d="M222.765 215.219C222.507 215.207 222.335 215.011 222.347 214.777L222.851 205.699C222.851 205.465 223.06 205.281 223.293 205.305C223.526 205.318 223.698 205.514 223.686 205.748L223.182 214.826C223.182 215.047 222.986 215.219 222.765 215.219Z" fill="#91473E"/>
<path d="M190.026 150.601C190.026 150.601 195.541 144.52 201.463 143.574C207.384 142.628 207.703 144.053 207.703 144.053L207.151 139.311C207.151 139.311 204.669 137.383 197.36 139.729C189.706 142.186 186.18 149.803 186.18 149.803L190.026 150.613V150.601Z" fill="#5CAF50"/>
</g>
<defs>
<clipPath id="clip0_1650_7055">
<rect width="283.583" height="280.5" fill="white" transform="translate(34.7082 129.25)"/>
</clipPath>
</defs>
</svg>
