<svg width="60" height="60" viewBox="0 0 60 60" fill="none" xmlns="http://www.w3.org/2000/svg">
<rect x="59.5" y="59.5" width="59" height="59" rx="13.5" transform="rotate(-180 59.5 59.5)" fill="white"/>
<path d="M30 35.5C31.25 35.5 32.3127 35.0623 33.188 34.187C34.0633 33.3117 34.5007 32.2493 34.5 31C34.5 29.75 34.0623 28.6873 33.187 27.812C32.3117 26.9367 31.2493 26.4993 30 26.5C28.75 26.5 27.6873 26.9377 26.812 27.813C25.9367 28.6883 25.4993 29.7507 25.5 31C25.5 32.25 25.9377 33.3127 26.813 34.188C27.6883 35.0633 28.7507 35.5007 30 35.5ZM20 39V23H25.15L27 21H33L34.85 23H40V39H20Z" fill="#8EDF82"/>
<rect x="59.5" y="59.5" width="59" height="59" rx="13.5" transform="rotate(-180 59.5 59.5)" stroke="#8EDF82"/>
</svg>
