<svg width="30" height="31" viewBox="0 0 30 31" fill="none" xmlns="http://www.w3.org/2000/svg">
<path d="M16.5 17H13.5V8H16.5M16.5 23H13.5V20H16.5M15 0.5C13.0302 0.5 11.0796 0.887987 9.25975 1.64181C7.43986 2.39563 5.78628 3.50052 4.3934 4.8934C1.58035 7.70644 0 11.5218 0 15.5C0 19.4782 1.58035 23.2936 4.3934 26.1066C5.78628 27.4995 7.43986 28.6044 9.25975 29.3582C11.0796 30.112 13.0302 30.5 15 30.5C18.9782 30.5 22.7936 28.9196 25.6066 26.1066C28.4196 23.2936 30 19.4782 30 15.5C30 13.5302 29.612 11.5796 28.8582 9.75975C28.1044 7.93986 26.9995 6.28628 25.6066 4.8934C24.2137 3.50052 22.5601 2.39563 20.7403 1.64181C18.9204 0.887987 16.9698 0.5 15 0.5Z" fill="#F29E48"/>
</svg>
