<svg width="353" height="353" viewBox="0 0 353 353" fill="none" xmlns="http://www.w3.org/2000/svg">
<g clip-path="url(#clip0_1147_6184)">
<g clip-path="url(#clip1_1147_6184)">
<path d="M102.37 0H0V104.09C0 47.17 45.68 0.95 102.37 0Z" fill="white"/>
<path d="M213.57 312.82C213.57 290.99 196.34 273.19 174.74 272.27V272.18H102.37V272.09C45.68 271.14 0 224.92 0 168V353.37H174.74C196.34 352.45 213.57 334.65 213.57 312.82Z" fill="white"/>
<path d="M250.63 353L353 353L353 248.91C353 305.83 307.32 352.05 250.63 353Z" fill="white"/>
<path d="M139.43 40.18C139.43 62.01 156.66 79.81 178.26 80.73L178.26 80.82L250.63 80.82L250.63 80.91C307.32 81.86 353 128.08 353 185L353 -0.369995L178.26 -0.37001C156.66 0.549986 139.43 18.35 139.43 40.18Z" fill="white"/>
</g>
<g clip-path="url(#clip2_1147_6184)">
<path d="M257.312 19.0884C253.9 19.0884 251.135 21.8536 251.135 25.2648C251.135 28.6761 253.9 31.4413 257.312 31.4413C260.723 31.4413 263.488 28.6761 263.488 25.2648C263.488 21.8536 260.723 19.0884 257.312 19.0884ZM257.312 29.2178C255.128 29.2178 253.359 27.4482 253.359 25.2648C253.359 23.0815 255.128 21.3119 257.312 21.3119C259.495 21.3119 261.265 23.0815 261.265 25.2648C261.265 27.4482 259.495 29.2178 257.312 29.2178Z" fill="#050E04"/>
<path d="M239.647 19.0884C236.236 19.0884 233.471 21.8536 233.471 25.2648C233.471 28.6761 236.236 31.4413 239.647 31.4413C243.058 31.4413 245.824 28.6761 245.824 25.2648C245.824 21.8536 243.058 19.0884 239.647 19.0884ZM239.647 29.2178C237.464 29.2178 235.694 27.4482 235.694 25.2648C235.694 23.0815 237.464 21.3119 239.647 21.3119C241.831 21.3119 243.6 23.0815 243.6 25.2648C243.6 27.4482 241.831 29.2178 239.647 29.2178Z" fill="#050E04"/>
<path d="M235.694 36.9999H233.471V25.2646H233.739C234.819 25.2646 235.694 26.1405 235.694 27.2201V36.9999Z" fill="#050E04"/>
<path d="M271.209 19.0884C267.797 19.0884 265.032 21.8536 265.032 25.2648C265.032 28.6761 267.797 31.4413 271.209 31.4413C274.62 31.4413 277.385 28.6761 277.385 25.2648C277.385 21.8536 274.62 19.0884 271.209 19.0884ZM271.209 29.2178C269.025 29.2178 267.256 27.4482 267.256 25.2648C267.256 23.0815 269.025 21.3119 271.209 21.3119C273.392 21.3119 275.162 23.0815 275.162 25.2648C275.162 27.4482 273.392 29.2178 271.209 29.2178Z" fill="#050E04"/>
<path d="M271.209 34.7767C269.025 34.7767 267.256 33.0071 267.256 30.8237H265.032C265.032 34.235 267.797 37.0002 271.209 37.0002C274.62 37.0002 277.385 34.235 277.385 30.8237H275.162C275.162 33.0071 273.392 34.7767 271.209 34.7767Z" fill="#050E04"/>
<path d="M249.591 16H247.368V31.4412H249.591V16Z" fill="#050E04"/>
<path d="M312.807 19.0884C309.396 19.0884 306.631 21.8536 306.631 25.2648C306.631 28.6761 309.396 31.4413 312.807 31.4413C316.219 31.4413 318.984 28.6761 318.984 25.2648C318.984 21.8536 316.219 19.0884 312.807 19.0884ZM312.807 29.2178C310.624 29.2178 308.854 27.4482 308.854 25.2648C308.854 23.0815 310.624 21.3119 312.807 21.3119C314.991 21.3119 316.76 23.0815 316.76 25.2648C316.76 27.4482 314.991 29.2178 312.807 29.2178Z" fill="#050E04"/>
<path d="M336.031 16H333.808V31.4412H336.031V16Z" fill="#050E04"/>
<path d="M292.425 19.0884H286.311V21.3119H292.425V19.0884Z" fill="#050E04"/>
<path d="M288.843 29.2178H282.728V31.4413H288.843V29.2178Z" fill="#050E04"/>
<path d="M288.843 24.1528H286.311V26.3764H288.843V24.1528Z" fill="#050E04"/>
<path d="M286.31 24.1499C285.554 24.1177 284.952 23.4945 284.952 22.7311C284.952 21.9677 285.554 21.3445 286.31 21.3124V19.0889C284.326 19.1216 282.728 20.7392 282.728 22.7305C282.728 24.7218 284.326 26.34 286.31 26.3728V24.1492V24.1499Z" fill="#050E04"/>
<path d="M288.843 26.3798C289.599 26.4119 290.202 27.0351 290.202 27.7985C290.202 28.5619 289.599 29.1851 288.843 29.2173V31.4408C290.827 31.4074 292.425 29.7898 292.425 27.7985C292.425 25.8072 290.827 24.189 288.843 24.1562V26.3798Z" fill="#050E04"/>
<path d="M305.705 26.3744H295.575V24.1509H305.605L305.705 25.2626V26.3744Z" fill="#050E04"/>
<path d="M299.528 19.0884C296.117 19.0884 293.352 21.8536 293.352 25.2648C293.352 28.6761 296.117 31.4413 299.528 31.4413C301.233 31.4413 302.777 30.7502 303.895 29.6322L302.323 28.0597C301.608 28.7749 300.619 29.2178 299.528 29.2178C297.345 29.2178 295.575 27.4482 295.575 25.2648C295.575 23.0815 297.345 21.3119 299.528 21.3119C301.711 21.3119 303.481 23.0815 303.481 25.2648H305.705C305.705 21.8536 302.939 19.0884 299.528 19.0884Z" fill="#050E04"/>
<path d="M322.134 19.397H319.911V25.2646H322.134V19.397Z" fill="#050E04"/>
<path d="M332.264 19.397H330.04V25.2646H332.264V19.397Z" fill="#050E04"/>
<path d="M326.087 29.2176C323.904 29.2176 322.134 27.448 322.134 25.2646H319.911C319.911 28.6759 322.676 31.4411 326.087 31.4411C329.498 31.4411 332.264 28.6759 332.264 25.2646H330.04C330.04 27.448 328.27 29.2176 326.087 29.2176Z" fill="#050E04"/>
</g>
</g>
<defs>
<clipPath id="clip0_1147_6184">
<rect width="353" height="353" fill="white"/>
</clipPath>
<clipPath id="clip1_1147_6184">
<rect width="353" height="353" fill="white"/>
</clipPath>
<clipPath id="clip2_1147_6184">
<rect width="102.529" height="21" fill="white" transform="translate(233.471 16)"/>
</clipPath>
</defs>
</svg>
