<svg width="353" height="353" viewBox="0 0 353 353" fill="none" xmlns="http://www.w3.org/2000/svg">
<g clip-path="url(#clip0_1147_6154)">
<g clip-path="url(#clip1_1147_6154)">
<path d="M102.37 0H0V104.09C0 47.17 45.68 0.95 102.37 0Z" fill="white"/>
<path d="M213.57 312.82C213.57 290.99 196.34 273.19 174.74 272.27V272.18H102.37V272.09C45.68 271.14 0 224.92 0 168V353.37H174.74C196.34 352.45 213.57 334.65 213.57 312.82Z" fill="white"/>
<path d="M250.63 353L353 353L353 248.91C353 305.83 307.32 352.05 250.63 353Z" fill="white"/>
<path d="M139.43 40.18C139.43 62.01 156.66 79.81 178.26 80.73L178.26 80.82L250.63 80.82L250.63 80.91C307.32 81.86 353 128.08 353 185L353 -0.369995L178.26 -0.37001C156.66 0.549986 139.43 18.35 139.43 40.18Z" fill="white"/>
</g>
<g clip-path="url(#clip2_1147_6154)">
<path d="M38.841 19.0884C35.4298 19.0884 32.6646 21.8536 32.6646 25.2648C32.6646 28.6761 35.4298 31.4413 38.841 31.4413C42.2523 31.4413 45.0175 28.6761 45.0175 25.2648C45.0175 21.8536 42.2523 19.0884 38.841 19.0884ZM38.841 29.2178C36.6576 29.2178 34.8881 27.4482 34.8881 25.2648C34.8881 23.0815 36.6576 21.3119 38.841 21.3119C41.0244 21.3119 42.794 23.0815 42.794 25.2648C42.794 27.4482 41.0244 29.2178 38.841 29.2178Z" fill="#050E04"/>
<path d="M21.1765 19.0884C17.7652 19.0884 15 21.8536 15 25.2648C15 28.6761 17.7652 31.4413 21.1765 31.4413C24.5877 31.4413 27.3529 28.6761 27.3529 25.2648C27.3529 21.8536 24.5877 19.0884 21.1765 19.0884ZM21.1765 29.2178C18.9931 29.2178 17.2235 27.4482 17.2235 25.2648C17.2235 23.0815 18.9931 21.3119 21.1765 21.3119C23.3599 21.3119 25.1294 23.0815 25.1294 25.2648C25.1294 27.4482 23.3599 29.2178 21.1765 29.2178Z" fill="#050E04"/>
<path d="M17.2235 36.9999H15V25.2646H15.2681C16.3483 25.2646 17.2235 26.1405 17.2235 27.2201V36.9999Z" fill="#050E04"/>
<path d="M52.738 19.0884C49.3267 19.0884 46.5615 21.8536 46.5615 25.2648C46.5615 28.6761 49.3267 31.4413 52.738 31.4413C56.1493 31.4413 58.9145 28.6761 58.9145 25.2648C58.9145 21.8536 56.1493 19.0884 52.738 19.0884ZM52.738 29.2178C50.5546 29.2178 48.7851 27.4482 48.7851 25.2648C48.7851 23.0815 50.5546 21.3119 52.738 21.3119C54.9214 21.3119 56.6909 23.0815 56.6909 25.2648C56.6909 27.4482 54.9214 29.2178 52.738 29.2178Z" fill="#050E04"/>
<path d="M52.738 34.7767C50.5546 34.7767 48.7851 33.0071 48.7851 30.8237H46.5615C46.5615 34.235 49.3267 37.0002 52.738 37.0002C56.1493 37.0002 58.9145 34.235 58.9145 30.8237H56.6909C56.6909 33.0071 54.9214 34.7767 52.738 34.7767Z" fill="#050E04"/>
<path d="M31.1205 16H28.897V31.4412H31.1205V16Z" fill="#050E04"/>
<path d="M94.3366 19.0884C90.9254 19.0884 88.1602 21.8536 88.1602 25.2648C88.1602 28.6761 90.9254 31.4413 94.3366 31.4413C97.7479 31.4413 100.513 28.6761 100.513 25.2648C100.513 21.8536 97.7479 19.0884 94.3366 19.0884ZM94.3366 29.2178C92.1532 29.2178 90.3837 27.4482 90.3837 25.2648C90.3837 23.0815 92.1532 21.3119 94.3366 21.3119C96.52 21.3119 98.2896 23.0815 98.2896 25.2648C98.2896 27.4482 96.52 29.2178 94.3366 29.2178Z" fill="#050E04"/>
<path d="M117.56 16H115.337V31.4412H117.56V16Z" fill="#050E04"/>
<path d="M73.9545 19.0884H67.8398V21.3119H73.9545V19.0884Z" fill="#050E04"/>
<path d="M70.372 29.2178H64.2573V31.4413H70.372V29.2178Z" fill="#050E04"/>
<path d="M70.3722 24.1528H67.8398V26.3764H70.3722V24.1528Z" fill="#050E04"/>
<path d="M67.8397 24.1499C67.0837 24.1177 66.4809 23.4945 66.4809 22.7311C66.4809 21.9677 67.0837 21.3445 67.8397 21.3124V19.0889C65.8558 19.1216 64.2573 20.7392 64.2573 22.7305C64.2573 24.7218 65.8558 26.34 67.8397 26.3728V24.1492V24.1499Z" fill="#050E04"/>
<path d="M70.3721 26.3798C71.1281 26.4119 71.7309 27.0351 71.7309 27.7985C71.7309 28.5619 71.1281 29.1851 70.3721 29.2173V31.4408C72.356 31.4074 73.9544 29.7898 73.9544 27.7985C73.9544 25.8072 72.356 24.189 70.3721 24.1562V26.3798Z" fill="#050E04"/>
<path d="M87.2339 26.3744H77.1045V24.1509H87.1338L87.2339 25.2626V26.3744Z" fill="#050E04"/>
<path d="M81.0573 19.0884C77.6461 19.0884 74.8809 21.8536 74.8809 25.2648C74.8809 28.6761 77.6461 31.4413 81.0573 31.4413C82.7627 31.4413 84.3068 30.7502 85.4247 29.6322L83.8522 28.0597C83.1369 28.7749 82.1487 29.2178 81.0573 29.2178C78.8739 29.2178 77.1044 27.4482 77.1044 25.2648C77.1044 23.0815 78.8739 21.3119 81.0573 21.3119C83.2407 21.3119 85.0103 23.0815 85.0103 25.2648H87.2338C87.2338 21.8536 84.4686 19.0884 81.0573 19.0884Z" fill="#050E04"/>
<path d="M103.663 19.397H101.44V25.2646H103.663V19.397Z" fill="#050E04"/>
<path d="M113.793 19.397H111.569V25.2646H113.793V19.397Z" fill="#050E04"/>
<path d="M107.616 29.2176C105.433 29.2176 103.663 27.448 103.663 25.2646H101.44C101.44 28.6759 104.205 31.4411 107.616 31.4411C111.028 31.4411 113.793 28.6759 113.793 25.2646H111.569C111.569 27.448 109.8 29.2176 107.616 29.2176Z" fill="#050E04"/>
</g>
</g>
<defs>
<clipPath id="clip0_1147_6154">
<rect width="353" height="353" fill="white"/>
</clipPath>
<clipPath id="clip1_1147_6154">
<rect width="353" height="353" fill="white"/>
</clipPath>
<clipPath id="clip2_1147_6154">
<rect width="102.529" height="21" fill="white" transform="translate(15 16)"/>
</clipPath>
</defs>
</svg>
