<svg width="353" height="354" viewBox="0 0 353 354" fill="none" xmlns="http://www.w3.org/2000/svg">
<path d="M102.37 0H0V104.09C0 47.17 45.68 0.95 102.37 0Z" fill="white"/>
<path d="M213.57 312.82C213.57 290.99 196.34 273.19 174.74 272.27V272.18H102.37V272.09C45.68 271.14 0 224.92 0 168V353.37H174.74C196.34 352.45 213.57 334.65 213.57 312.82Z" fill="white"/>
<path d="M250.2 353.37L352.57 353.37L352.57 249.28C352.57 306.2 306.89 352.42 250.2 353.37Z" fill="white"/>
<path d="M139 40.5501C139 62.3801 156.23 80.1801 177.83 81.1001L177.83 81.1901L250.2 81.1901L250.2 81.2801C306.89 82.2301 352.57 128.45 352.57 185.37L352.57 0.00012207L177.83 0.000106794C156.23 0.920103 139 18.7201 139 40.5501Z" fill="white"/>
</svg>
