<svg width="353" height="352" viewBox="0 0 353 352" fill="none" xmlns="http://www.w3.org/2000/svg">
<rect width="353" height="47.4607" fill="url(#paint0_linear_8_7310)" fill-opacity="0.47"/>
<rect y="304.539" width="353" height="47.4607" fill="url(#paint1_linear_8_7310)" fill-opacity="0.47"/>
<g clip-path="url(#clip0_8_7310)" filter="url(#filter0_d_8_7310)">
<path d="M44.8341 14.657C40.7085 14.657 37.3643 18.0421 37.3643 22.2181C37.3643 26.3941 40.7085 29.7793 44.8341 29.7793C48.9598 29.7793 52.304 26.3941 52.304 22.2181C52.304 18.0421 48.9598 14.657 44.8341 14.657ZM44.8341 27.0572C42.1935 27.0572 40.0534 24.891 40.0534 22.2181C40.0534 19.5453 42.1935 17.379 44.8341 17.379C47.4747 17.379 49.6149 19.5453 49.6149 22.2181C49.6149 24.891 47.4747 27.0572 44.8341 27.0572Z" fill="white"/>
<path d="M23.4699 14.657C19.3443 14.657 16 18.0421 16 22.2181C16 26.3941 19.3443 29.7793 23.4699 29.7793C27.5955 29.7793 30.9398 26.3941 30.9398 22.2181C30.9398 18.0421 27.5955 14.657 23.4699 14.657ZM23.4699 27.0572C20.8293 27.0572 18.6892 24.891 18.6892 22.2181C18.6892 19.5453 20.8293 17.379 23.4699 17.379C26.1105 17.379 28.2506 19.5453 28.2506 22.2181C28.2506 24.891 26.1105 27.0572 23.4699 27.0572Z" fill="white"/>
<path d="M18.6892 36.5844H16V22.2183H16.3242C17.6307 22.2183 18.6892 23.2904 18.6892 24.6121V36.5844Z" fill="white"/>
<path d="M61.6408 14.657C57.5152 14.657 54.1709 18.0421 54.1709 22.2181C54.1709 26.3941 57.5152 29.7793 61.6408 29.7793C65.7664 29.7793 69.1107 26.3941 69.1107 22.2181C69.1107 18.0421 65.7664 14.657 61.6408 14.657ZM61.6408 27.0572C59.0002 27.0572 56.8601 24.891 56.8601 22.2181C56.8601 19.5453 59.0002 17.379 61.6408 17.379C64.2814 17.379 66.4215 19.5453 66.4215 22.2181C66.4215 24.891 64.2814 27.0572 61.6408 27.0572Z" fill="white"/>
<path d="M61.6408 33.8623C59.0002 33.8623 56.8601 31.6961 56.8601 29.0232H54.1709C54.1709 33.1992 57.5152 36.5843 61.6408 36.5843C65.7664 36.5843 69.1107 33.1992 69.1107 29.0232H66.4215C66.4215 31.6961 64.2814 33.8623 61.6408 33.8623Z" fill="white"/>
<path d="M35.4968 10.8765H32.8076V29.7793H35.4968V10.8765Z" fill="white"/>
<path d="M111.95 14.657C107.825 14.657 104.48 18.0421 104.48 22.2181C104.48 26.3941 107.825 29.7793 111.95 29.7793C116.076 29.7793 119.42 26.3941 119.42 22.2181C119.42 18.0421 116.076 14.657 111.95 14.657ZM111.95 27.0572C109.31 27.0572 107.17 24.891 107.17 22.2181C107.17 19.5453 109.31 17.379 111.95 17.379C114.591 17.379 116.731 19.5453 116.731 22.2181C116.731 24.891 114.591 27.0572 111.95 27.0572Z" fill="white"/>
<path d="M140.038 10.8765H137.349V29.7793H140.038V10.8765Z" fill="white"/>
<path d="M87.3004 14.657H79.9053V17.379H87.3004V14.657Z" fill="white"/>
<path d="M82.9674 27.0574H75.5723V29.7794H82.9674V27.0574Z" fill="white"/>
<path d="M82.9679 20.8572H79.9053V23.5792H82.9679V20.8572Z" fill="white"/>
<path d="M79.9048 20.8533C78.9905 20.814 78.2614 20.0511 78.2614 19.1165C78.2614 18.182 78.9905 17.419 79.9048 17.3797V14.6577C77.5055 14.6978 75.5723 16.678 75.5723 19.1158C75.5723 21.5535 77.5055 23.5345 79.9048 23.5746V20.8526V20.8533Z" fill="white"/>
<path d="M82.9678 23.5828C83.8821 23.6222 84.6111 24.3851 84.6111 25.3196C84.6111 26.2542 83.8821 27.0171 82.9678 27.0564V29.7784C85.3671 29.7376 87.3003 27.7574 87.3003 25.3196C87.3003 22.8819 85.3671 20.9009 82.9678 20.8608V23.5828Z" fill="white"/>
<path d="M103.36 23.577H91.1094V20.855H103.239L103.36 22.216V23.577Z" fill="white"/>
<path d="M95.8908 14.657C91.7652 14.657 88.4209 18.0421 88.4209 22.2181C88.4209 26.3941 91.7652 29.7793 95.8908 29.7793C97.9532 29.7793 99.8207 28.9332 101.173 27.5646L99.2709 25.6395C98.4059 26.5151 97.2107 27.0572 95.8908 27.0572C93.2502 27.0572 91.1101 24.891 91.1101 22.2181C91.1101 19.5453 93.2502 17.379 95.8908 17.379C98.5314 17.379 100.672 19.5453 100.672 22.2181H103.361C103.361 18.0421 100.016 14.657 95.8908 14.657Z" fill="white"/>
<path d="M123.23 15.0352H120.541V22.2182H123.23V15.0352Z" fill="white"/>
<path d="M135.481 15.0352H132.792V22.2182H135.481V15.0352Z" fill="white"/>
<path d="M128.011 27.0574C125.37 27.0574 123.23 24.8911 123.23 22.2183H120.541C120.541 26.3943 123.885 29.7794 128.011 29.7794C132.137 29.7794 135.481 26.3943 135.481 22.2183H132.792C132.792 24.8911 130.652 27.0574 128.011 27.0574Z" fill="white"/>
</g>
<defs>
<filter id="filter0_d_8_7310" x="12" y="10.8765" width="132" height="33.7078" filterUnits="userSpaceOnUse" color-interpolation-filters="sRGB">
<feFlood flood-opacity="0" result="BackgroundImageFix"/>
<feColorMatrix in="SourceAlpha" type="matrix" values="0 0 0 0 0 0 0 0 0 0 0 0 0 0 0 0 0 0 127 0" result="hardAlpha"/>
<feOffset dy="4"/>
<feGaussianBlur stdDeviation="2"/>
<feComposite in2="hardAlpha" operator="out"/>
<feColorMatrix type="matrix" values="0 0 0 0 0 0 0 0 0 0 0 0 0 0 0 0 0 0 0.5 0"/>
<feBlend mode="normal" in2="BackgroundImageFix" result="effect1_dropShadow_8_7310"/>
<feBlend mode="normal" in="SourceGraphic" in2="effect1_dropShadow_8_7310" result="shape"/>
</filter>
<linearGradient id="paint0_linear_8_7310" x1="176.5" y1="0" x2="176.5" y2="47.4607" gradientUnits="userSpaceOnUse">
<stop offset="0.192708"/>
<stop offset="0.989583" stop-opacity="0"/>
</linearGradient>
<linearGradient id="paint1_linear_8_7310" x1="176.5" y1="304.539" x2="176.5" y2="352" gradientUnits="userSpaceOnUse">
<stop stop-opacity="0"/>
<stop offset="0.619792"/>
</linearGradient>
<clipPath id="clip0_8_7310">
<rect width="124" height="25.7079" fill="white" transform="translate(16 10.8765)"/>
</clipPath>
</defs>
</svg>
