<svg width="120" height="140" viewBox="0 0 120 140" fill="none" xmlns="http://www.w3.org/2000/svg">
<rect width="120" height="140" rx="14" fill="#E2E2E2"/>
<path d="M31.008 93.512H36.768V95.176H29.088V83.272H31.008V93.512ZM41.4414 93.64C41.8787 93.64 42.2627 93.5333 42.5934 93.32C42.924 93.096 43.18 92.7813 43.3614 92.376C43.5427 91.96 43.6334 91.4853 43.6334 90.952C43.6334 90.4187 43.5427 89.9493 43.3614 89.544C43.18 89.128 42.924 88.808 42.5934 88.584C42.2627 88.36 41.8787 88.248 41.4414 88.248C41.004 88.248 40.62 88.36 40.2894 88.584C39.9587 88.808 39.7027 89.128 39.5214 89.544C39.34 89.9493 39.2494 90.4187 39.2494 90.952C39.2494 91.4853 39.34 91.9547 39.5214 92.36C39.7027 92.7653 39.9587 93.08 40.2894 93.304C40.62 93.528 41.004 93.64 41.4414 93.64ZM41.4414 86.68C42.2414 86.68 42.9507 86.8613 43.5694 87.224C44.1987 87.5867 44.684 88.0933 45.0254 88.744C45.3774 89.384 45.5534 90.12 45.5534 90.952C45.5534 91.7733 45.3774 92.5093 45.0254 93.16C44.684 93.8107 44.1987 94.3173 43.5694 94.68C42.9507 95.0427 42.2414 95.224 41.4414 95.224C40.6414 95.224 39.932 95.0427 39.3134 94.68C38.6947 94.3173 38.2094 93.816 37.8574 93.176C37.5054 92.5253 37.3294 91.784 37.3294 90.952C37.3294 90.12 37.5054 89.384 37.8574 88.744C38.2094 88.0933 38.6947 87.5867 39.3134 87.224C39.932 86.8613 40.6414 86.68 41.4414 86.68ZM50.9585 93.672C51.3745 93.672 51.7638 93.5547 52.1265 93.32C52.4892 93.0853 52.7772 92.76 52.9905 92.344C53.2038 91.928 53.3105 91.4693 53.3105 90.968C53.3105 90.4667 53.2038 90.0133 52.9905 89.608C52.7772 89.192 52.4892 88.8667 52.1265 88.632C51.7638 88.3973 51.3745 88.28 50.9585 88.28C50.5105 88.28 50.1158 88.392 49.7745 88.616C49.4332 88.8293 49.1665 89.144 48.9745 89.56C48.7932 89.9653 48.7025 90.4347 48.7025 90.968C48.7025 91.512 48.7932 91.9867 48.9745 92.392C49.1665 92.7973 49.4332 93.112 49.7745 93.336C50.1158 93.56 50.5105 93.672 50.9585 93.672ZM55.2305 95.176H53.3105V93.912C53.0865 94.2107 52.8358 94.456 52.5585 94.648C52.2918 94.84 52.0092 94.984 51.7105 95.08C51.4118 95.1867 51.1078 95.24 50.7985 95.24C50.0198 95.24 49.3265 95.0587 48.7185 94.696C48.1105 94.3333 47.6358 93.832 47.2945 93.192C46.9532 92.5413 46.7825 91.8 46.7825 90.968C46.7825 90.1467 46.9532 89.416 47.2945 88.776C47.6358 88.1253 48.1105 87.6187 48.7185 87.256C49.3265 86.8933 50.0198 86.712 50.7985 86.712C51.2678 86.712 51.7212 86.824 52.1585 87.048C52.6065 87.272 52.9905 87.6027 53.3105 88.04V86.68H55.2305V95.176ZM60.8614 95.24C60.0827 95.24 59.384 95.0587 58.7654 94.696C58.1574 94.3227 57.6827 93.816 57.3414 93.176C57 92.5253 56.8294 91.784 56.8294 90.952C56.8294 90.1307 57 89.3947 57.3414 88.744C57.6827 88.0933 58.1574 87.5867 58.7654 87.224C59.384 86.8507 60.0827 86.664 60.8614 86.664C61.1174 86.664 61.3894 86.7013 61.6774 86.776C61.9654 86.8507 62.264 86.9893 62.5734 87.192C62.8934 87.3947 63.1707 87.672 63.4054 88.024V83.272H65.3254V95.176H63.4054V93.896C63.064 94.376 62.648 94.7227 62.1574 94.936C61.6774 95.1387 61.2454 95.24 60.8614 95.24ZM61.0214 93.704C61.448 93.704 61.8427 93.5867 62.2054 93.352C62.568 93.1067 62.856 92.776 63.0694 92.36C63.2934 91.944 63.4054 91.4907 63.4054 91C63.4054 90.5093 63.2934 90.056 63.0694 89.64C62.856 89.2133 62.568 88.8773 62.2054 88.632C61.8427 88.3867 61.448 88.264 61.0214 88.264C60.5627 88.264 60.1627 88.376 59.8214 88.6C59.48 88.824 59.2134 89.144 59.0214 89.56C58.84 89.976 58.7494 90.456 58.7494 91C58.7494 91.5333 58.84 92.008 59.0214 92.424C59.2134 92.8293 59.48 93.144 59.8214 93.368C60.1627 93.592 60.5627 93.704 61.0214 93.704ZM69.4474 86.76V95.176H67.5274V86.76H69.4474ZM68.4874 83.032C68.7967 83.032 69.0474 83.128 69.2394 83.32C69.442 83.512 69.5434 83.7627 69.5434 84.072C69.5434 84.3813 69.442 84.6373 69.2394 84.84C69.0474 85.032 68.7967 85.128 68.4874 85.128C68.1887 85.128 67.938 85.032 67.7354 84.84C67.5434 84.6373 67.4474 84.3813 67.4474 84.072C67.4474 83.7627 67.5434 83.512 67.7354 83.32C67.938 83.128 68.1887 83.032 68.4874 83.032ZM77.4913 90.6C77.4913 89.8747 77.3206 89.3093 76.9793 88.904C76.6379 88.4987 76.1526 88.296 75.5233 88.296C75.1393 88.296 74.7873 88.3973 74.4673 88.6C74.1579 88.792 73.9126 89.064 73.7313 89.416C73.5499 89.7573 73.4646 90.152 73.4753 90.6V95.176H71.5553V86.68H73.4753V88.104C73.7099 87.7093 74.0513 87.384 74.4993 87.128C74.9579 86.8613 75.4113 86.728 75.8593 86.728C76.4246 86.728 76.9739 86.8507 77.5073 87.096C78.0513 87.3413 78.5046 87.752 78.8673 88.328C79.2299 88.904 79.4113 89.6453 79.4113 90.552V95.176H77.4913V90.6ZM85.005 93.64C85.453 93.64 85.8583 93.5227 86.221 93.288C86.5837 93.0427 86.8663 92.712 87.069 92.296C87.2717 91.88 87.373 91.4267 87.373 90.936C87.373 90.4667 87.2717 90.0293 87.069 89.624C86.8663 89.208 86.5837 88.8773 86.221 88.632C85.8583 88.3867 85.453 88.264 85.005 88.264C84.5677 88.264 84.1783 88.376 83.837 88.6C83.4957 88.824 83.229 89.1387 83.037 89.544C82.8557 89.9493 82.765 90.4133 82.765 90.936C82.765 91.48 82.8557 91.96 83.037 92.376C83.229 92.7813 83.4957 93.096 83.837 93.32C84.1783 93.5333 84.5677 93.64 85.005 93.64ZM89.293 94.616C89.293 95.416 89.117 96.1307 88.765 96.76C88.4237 97.4 87.9277 97.896 87.277 98.248C86.637 98.6107 85.885 98.792 85.021 98.792C84.2637 98.792 83.565 98.6373 82.925 98.328C82.2957 98.0187 81.7837 97.5493 81.389 96.92L82.877 95.896C83.2077 96.3333 83.533 96.648 83.853 96.84C84.173 97.0427 84.5623 97.144 85.021 97.144C85.5117 97.144 85.933 97.0427 86.285 96.84C86.637 96.648 86.9037 96.376 87.085 96.024C87.277 95.672 87.373 95.2827 87.373 94.856V93.864C87.0423 94.3227 86.653 94.664 86.205 94.888C85.757 95.112 85.309 95.224 84.861 95.224C84.0823 95.224 83.389 95.0427 82.781 94.68C82.173 94.3173 81.6983 93.8107 81.357 93.16C81.0157 92.5093 80.845 91.7733 80.845 90.952C80.845 90.1307 81.0157 89.4 81.357 88.76C81.6983 88.1093 82.173 87.608 82.781 87.256C83.389 86.8933 84.0823 86.712 84.861 86.712C85.1597 86.712 85.4637 86.7547 85.773 86.84C86.0823 86.9253 86.3757 87.0693 86.653 87.272C86.941 87.4747 87.181 87.72 87.373 88.008V86.68H89.293V94.616Z" fill="#858585"/>
<path opacity="0.2" d="M69.375 46.6875H50.625C50.3764 46.6875 50.1379 46.7863 49.9621 46.9621C49.7863 47.1379 49.6875 47.3764 49.6875 47.625V66.375C49.6875 66.6236 49.7863 66.8621 49.9621 67.0379C50.1379 67.2137 50.3764 67.3125 50.625 67.3125H51.6434L64.493 54.4617C64.58 54.3746 64.6834 54.3054 64.7972 54.2582C64.9111 54.211 65.033 54.1868 65.1562 54.1868C65.2795 54.1868 65.4014 54.211 65.5153 54.2582C65.6291 54.3054 65.7325 54.3746 65.8195 54.4617L70.3125 58.9559V47.625C70.3125 47.3764 70.2137 47.1379 70.0379 46.9621C69.8621 46.7863 69.6236 46.6875 69.375 46.6875ZM56.25 55.125C55.8792 55.125 55.5166 55.015 55.2083 54.809C54.9 54.603 54.6596 54.3101 54.5177 53.9675C54.3758 53.6249 54.3387 53.2479 54.411 52.8842C54.4834 52.5205 54.662 52.1864 54.9242 51.9242C55.1864 51.662 55.5205 51.4834 55.8842 51.411C56.2479 51.3387 56.6249 51.3758 56.9675 51.5177C57.3101 51.6596 57.603 51.9 57.809 52.2083C58.015 52.5166 58.125 52.8792 58.125 53.25C58.125 53.7473 57.9275 54.2242 57.5758 54.5758C57.2242 54.9275 56.7473 55.125 56.25 55.125Z" fill="#858585"/>
<path d="M69.375 45.75H50.625C50.1277 45.75 49.6508 45.9475 49.2992 46.2992C48.9475 46.6508 48.75 47.1277 48.75 47.625V66.375C48.75 66.8723 48.9475 67.3492 49.2992 67.7008C49.6508 68.0525 50.1277 68.25 50.625 68.25H69.375C69.8723 68.25 70.3492 68.0525 70.7008 67.7008C71.0525 67.3492 71.25 66.8723 71.25 66.375V47.625C71.25 47.1277 71.0525 46.6508 70.7008 46.2992C70.3492 45.9475 69.8723 45.75 69.375 45.75ZM50.625 47.625H69.375V56.693L66.4816 53.7984C66.13 53.4471 65.6533 53.2497 65.1562 53.2497C64.6592 53.2497 64.1825 53.4471 63.8309 53.7984L51.2543 66.375H50.625V47.625ZM69.375 66.375H53.9062L65.1562 55.125L69.375 59.3438V66.375ZM56.25 56.0625C56.8063 56.0625 57.35 55.8975 57.8125 55.5885C58.2751 55.2795 58.6355 54.8402 58.8484 54.3263C59.0613 53.8124 59.117 53.2469 59.0085 52.7013C58.8999 52.1557 58.6321 51.6546 58.2387 51.2613C57.8454 50.8679 57.3443 50.6001 56.7987 50.4915C56.2531 50.383 55.6876 50.4387 55.1737 50.6516C54.6598 50.8645 54.2205 51.2249 53.9115 51.6875C53.6025 52.15 53.4375 52.6937 53.4375 53.25C53.4375 53.9959 53.7338 54.7113 54.2613 55.2387C54.7887 55.7662 55.5041 56.0625 56.25 56.0625ZM56.25 52.3125C56.4354 52.3125 56.6167 52.3675 56.7708 52.4705C56.925 52.5735 57.0452 52.7199 57.1161 52.8912C57.1871 53.0625 57.2057 53.251 57.1695 53.4329C57.1333 53.6148 57.044 53.7818 56.9129 53.9129C56.7818 54.044 56.6148 54.1333 56.4329 54.1695C56.251 54.2057 56.0625 54.1871 55.8912 54.1161C55.7199 54.0452 55.5735 53.925 55.4705 53.7708C55.3675 53.6167 55.3125 53.4354 55.3125 53.25C55.3125 53.0014 55.4113 52.7629 55.5871 52.5871C55.7629 52.4113 56.0014 52.3125 56.25 52.3125Z" fill="#858585"/>
</svg>
