<svg width="37" height="38" viewBox="0 0 37 38" fill="none" xmlns="http://www.w3.org/2000/svg">
<path d="M17.4393 34.0607L18.5 35.1213L19.5607 34.0607L25.1213 28.5H30.5C31.6935 28.5 32.8381 28.0259 33.682 27.182C34.5259 26.3381 35 25.1935 35 24V6C35 4.80653 34.5259 3.66193 33.682 2.81802C32.8381 1.97411 31.6935 1.5 30.5 1.5H6.5C5.30653 1.5 4.16193 1.97411 3.31802 2.81802C2.47411 3.66193 2 4.80653 2 6V24C2 25.1935 2.47411 26.3381 3.31802 27.182C4.16193 28.0259 5.30652 28.5 6.5 28.5H11.8787L17.4393 34.0607ZM27.5 21H14.6213L20 15.6213L21.9393 17.5607L23 18.6213L24.0607 17.5607L27.5 14.1213V21ZM9.93934 9.43934C10.2206 9.15804 10.6022 9 11 9C11.3978 9 11.7794 9.15804 12.0607 9.43934C12.342 9.72064 12.5 10.1022 12.5 10.5C12.5 10.8978 12.342 11.2794 12.0607 11.5607C11.7794 11.842 11.3978 12 11 12C10.6022 12 10.2206 11.842 9.93934 11.5607C9.65804 11.2794 9.5 10.8978 9.5 10.5C9.5 10.1022 9.65804 9.72064 9.93934 9.43934Z" fill="white" stroke="#7A7D81" stroke-width="3"/>
</svg>
