<svg width="36" height="38" viewBox="0 0 36 38" fill="none" xmlns="http://www.w3.org/2000/svg">
<path d="M30 3H6C5.20435 3 4.44129 3.31607 3.87868 3.87868C3.31607 4.44129 3 5.20435 3 6V24C3 24.7957 3.31607 25.5587 3.87868 26.1213C4.44129 26.6839 5.20435 27 6 27H12L18 33L24 27H30C30.7957 27 31.5587 26.6839 32.1213 26.1213C32.6839 25.5587 33 24.7957 33 24V6C33 5.20435 32.6839 4.44129 32.1213 3.87868C31.5587 3.31607 30.7957 3 30 3Z" fill="#7A7D81"/>
<path d="M16.9393 34.0607L18 35.1213L19.0607 34.0607L24.6213 28.5H30C31.1935 28.5 32.3381 28.0259 33.182 27.182C34.0259 26.3381 34.5 25.1935 34.5 24V6C34.5 4.80653 34.0259 3.66193 33.182 2.81802C32.3381 1.97411 31.1935 1.5 30 1.5H6C4.80653 1.5 3.66193 1.97411 2.81802 2.81802C1.97411 3.66193 1.5 4.80653 1.5 6V24C1.5 25.1935 1.97411 26.3381 2.81802 27.182C3.66193 28.0259 4.80652 28.5 6 28.5H11.3787L16.9393 34.0607ZM27 21H14.1213L19.5 15.6213L21.4393 17.5607L22.5 18.6213L23.5607 17.5607L27 14.1213V21ZM9.43934 9.43934C9.72064 9.15804 10.1022 9 10.5 9C10.8978 9 11.2794 9.15804 11.5607 9.43934C11.842 9.72064 12 10.1022 12 10.5C12 10.8978 11.842 11.2794 11.5607 11.5607C11.2794 11.842 10.8978 12 10.5 12C10.1022 12 9.72064 11.842 9.43934 11.5607C9.15804 11.2794 9 10.8978 9 10.5C9 10.1022 9.15804 9.72064 9.43934 9.43934Z" fill="white" stroke="#7A7D81" stroke-width="3"/>
</svg>
