<svg width="353" height="60" viewBox="0 0 353 60" fill="none" xmlns="http://www.w3.org/2000/svg">
<rect width="353" height="60" rx="14" fill="#FEE500"/>
<path d="M130.98 21.875C132.693 21.875 134.277 22.2083 135.733 22.875C137.188 23.5416 138.339 24.4482 139.184 25.5945C140.03 26.7409 140.453 27.9913 140.453 29.3458C140.453 30.7002 140.03 31.9524 139.184 33.1023C138.339 34.2522 137.19 35.1605 135.738 35.8271C134.286 36.4938 132.7 36.8271 130.98 36.8271C130.438 36.8271 129.877 36.7883 129.299 36.7107C126.79 38.4532 125.455 39.335 125.293 39.3562C125.215 39.3844 125.141 39.3809 125.071 39.3456C125.042 39.3245 125.021 39.2962 125.007 39.2609C124.993 39.2257 124.986 39.1939 124.986 39.1657V39.1234C125.028 38.8482 125.349 37.7019 125.948 35.6843C124.588 35.0071 123.508 34.1094 122.708 32.9912C121.908 31.8731 121.508 30.6579 121.508 29.3458C121.508 27.9913 121.931 26.7409 122.776 25.5945C123.622 24.4482 124.773 23.5416 126.228 22.875C127.684 22.2083 129.268 21.875 130.98 21.875Z" fill="black"/>
<path d="M156.835 24.685C156.835 26.145 156.665 27.465 156.325 28.645C155.985 29.815 155.375 30.91 154.495 31.93C153.625 32.95 152.405 33.85 150.835 34.63L149.98 33.4C151.33 32.72 152.39 31.96 153.16 31.12C153.94 30.28 154.485 29.36 154.795 28.36C155.115 27.35 155.275 26.19 155.275 24.88V24.685H156.835ZM156.22 24.685V25.975H150.76V24.685H156.22ZM155.215 29.215L150.295 29.695L150.085 28.3L155.215 27.985V29.215ZM160.315 23.35V36.685H158.695V23.35H160.315ZM162.295 28.585V29.92H159.91V28.585H162.295ZM169.946 24.685C169.946 26.145 169.776 27.465 169.436 28.645C169.096 29.815 168.486 30.91 167.606 31.93C166.736 32.95 165.516 33.85 163.946 34.63L163.091 33.4C164.441 32.72 165.501 31.96 166.271 31.12C167.051 30.28 167.596 29.36 167.906 28.36C168.226 27.35 168.386 26.19 168.386 24.88V24.685H169.946ZM169.331 24.685V25.975H163.871V24.685H169.331ZM168.326 29.215L163.406 29.695L163.196 28.3L168.326 27.985V29.215ZM173.426 23.35V36.685H171.806V23.35H173.426ZM175.406 28.585V29.92H173.021V28.585H175.406ZM182.996 30.865V34.015H181.391V30.865H182.996ZM182.201 24.115C183.141 24.115 183.981 24.265 184.721 24.565C185.471 24.865 186.056 25.285 186.476 25.825C186.906 26.365 187.121 26.995 187.121 27.715C187.121 28.425 186.906 29.055 186.476 29.605C186.056 30.145 185.471 30.565 184.721 30.865C183.981 31.165 183.141 31.315 182.201 31.315C181.251 31.315 180.401 31.165 179.651 30.865C178.911 30.565 178.331 30.145 177.911 29.605C177.491 29.055 177.281 28.425 177.281 27.715C177.281 26.995 177.491 26.365 177.911 25.825C178.331 25.285 178.911 24.865 179.651 24.565C180.401 24.265 181.251 24.115 182.201 24.115ZM182.201 25.39C181.551 25.39 180.971 25.485 180.461 25.675C179.961 25.865 179.566 26.135 179.276 26.485C178.996 26.835 178.856 27.245 178.856 27.715C178.856 28.175 178.996 28.585 179.276 28.945C179.566 29.295 179.961 29.565 180.461 29.755C180.971 29.945 181.551 30.04 182.201 30.04C182.851 30.04 183.426 29.945 183.926 29.755C184.436 29.565 184.831 29.295 185.111 28.945C185.401 28.585 185.546 28.175 185.546 27.715C185.546 27.245 185.401 26.835 185.111 26.485C184.831 26.135 184.436 25.865 183.926 25.675C183.426 25.485 182.851 25.39 182.201 25.39ZM188.246 33.76V35.065H176.171V33.76H188.246ZM204.814 33.835V35.14H192.739V33.835H204.814ZM199.564 31.165V34.375H197.959V31.165H199.564ZM203.404 24.265V28.54H195.784V30.955H194.179V27.265H201.814V25.555H194.164V24.265H203.404ZM203.704 30.325V31.615H194.179V30.325H203.704ZM215.629 24.655V25.945H207.124V24.655H215.629ZM217.909 33.55V34.87H205.849V33.55H217.909ZM216.379 24.655V26.14C216.379 27.34 216.349 28.405 216.289 29.335C216.239 30.265 216.104 31.35 215.884 32.59L214.264 32.44C214.484 31.28 214.624 30.24 214.684 29.32C214.744 28.39 214.774 27.33 214.774 26.14V24.655H216.379ZM229.969 23.38V33.01H228.349V23.38H229.969ZM230.344 35.14V36.445H221.239V35.14H230.344ZM222.844 32.05V35.635H221.239V32.05H222.844ZM222.754 24.25C223.414 24.25 224.014 24.395 224.554 24.685C225.104 24.965 225.534 25.36 225.844 25.87C226.154 26.38 226.309 26.955 226.309 27.595C226.309 28.235 226.154 28.81 225.844 29.32C225.534 29.82 225.104 30.215 224.554 30.505C224.014 30.785 223.414 30.925 222.754 30.925C222.094 30.925 221.489 30.785 220.939 30.505C220.399 30.215 219.974 29.815 219.664 29.305C219.354 28.795 219.199 28.22 219.199 27.58C219.199 26.95 219.354 26.385 219.664 25.885C219.974 25.375 220.399 24.975 220.939 24.685C221.489 24.395 222.094 24.25 222.754 24.25ZM222.754 25.645C222.374 25.645 222.034 25.725 221.734 25.885C221.434 26.045 221.199 26.275 221.029 26.575C220.859 26.865 220.774 27.205 220.774 27.595C220.774 27.975 220.859 28.31 221.029 28.6C221.209 28.89 221.449 29.115 221.749 29.275C222.049 29.435 222.384 29.515 222.754 29.515C223.134 29.515 223.474 29.435 223.774 29.275C224.074 29.115 224.309 28.89 224.479 28.6C224.659 28.31 224.749 27.975 224.749 27.595C224.749 27.205 224.659 26.865 224.479 26.575C224.309 26.275 224.074 26.045 223.774 25.885C223.474 25.725 223.134 25.645 222.754 25.645Z" fill="black" fill-opacity="0.85"/>
</svg>
