<svg width="20" height="20" viewBox="0 0 20 20" fill="none" xmlns="http://www.w3.org/2000/svg">
<g clip-path="url(#clip0_600_6623)">
<path d="M15 2V0H5V2H0V9C0 10.1 0.9 11 2 11H5.1C5.29718 11.9603 5.77179 12.8417 6.46502 13.535C7.15826 14.2282 8.03965 14.7028 9 14.9V17.08C6 17.54 6 20 6 20H14C14 20 14 17.54 11 17.08V14.9C11.9603 14.7028 12.8417 14.2282 13.535 13.535C14.2282 12.8417 14.7028 11.9603 14.9 11H18C19.1 11 20 10.1 20 9V2H15ZM2 9V4H5V9H2ZM18 9H15V4H18V9Z" fill="#050E04"/>
</g>
<defs>
<clipPath id="clip0_600_6623">
<rect width="20" height="20" fill="white"/>
</clipPath>
</defs>
</svg>
