<svg width="171" height="119" viewBox="0 0 171 119" fill="none" xmlns="http://www.w3.org/2000/svg">
<g clip-path="url(#clip0_528_4713)">
<mask id="mask0_528_4713" style="mask-type:luminance" maskUnits="userSpaceOnUse" x="0" y="0" width="171" height="119">
<path d="M171 0H0V119H171V0Z" fill="white"/>
</mask>
<g mask="url(#mask0_528_4713)">
<path d="M76.4845 9.91602C65.5409 9.91602 56.6699 18.7954 56.6699 29.7493C56.6699 40.7033 65.5409 49.5827 76.4845 49.5827C87.4281 49.5827 96.2991 40.7033 96.2991 29.7493C96.2991 18.7954 87.4281 9.91602 76.4845 9.91602ZM76.4845 42.4427C69.48 42.4427 63.8032 36.7604 63.8032 29.7493C63.8032 22.7382 69.48 17.056 76.4845 17.056C83.489 17.056 89.1658 22.7382 89.1658 29.7493C89.1658 36.7604 83.489 42.4427 76.4845 42.4427Z" fill="#8EDF82"/>
<path d="M19.8146 9.91602C8.871 9.91602 0 18.7954 0 29.7493C0 40.7033 8.871 49.5827 19.8146 49.5827C30.7582 49.5827 39.6292 40.7033 39.6292 29.7493C39.6292 18.7954 30.7582 9.91602 19.8146 9.91602ZM19.8146 42.4427C12.8101 42.4427 7.13326 36.7604 7.13326 29.7493C7.13326 22.7382 12.8101 17.056 19.8146 17.056C26.8191 17.056 32.4959 22.7382 32.4959 29.7493C32.4959 36.7604 26.8191 42.4427 19.8146 42.4427Z" fill="#8EDF82"/>
<path d="M7.13326 67.4333H0V29.75H0.859954C4.32553 29.75 7.13326 32.5624 7.13326 36.0292V67.4333Z" fill="#8EDF82"/>
<path d="M121.067 9.91602C110.124 9.91602 101.253 18.7954 101.253 29.7493C101.253 40.7033 110.124 49.5827 121.067 49.5827C132.011 49.5827 140.882 40.7033 140.882 29.7493C140.882 18.7954 132.011 9.91602 121.067 9.91602ZM121.067 42.4427C114.063 42.4427 108.386 36.7604 108.386 29.7493C108.386 22.7382 114.063 17.056 121.067 17.056C128.072 17.056 133.749 22.7382 133.749 29.7493C133.749 36.7604 128.072 42.4427 121.067 42.4427Z" fill="#8EDF82"/>
<path d="M121.067 60.2929C114.063 60.2929 108.386 54.6107 108.386 47.5996H101.253C101.253 58.5535 110.124 67.4329 121.067 67.4329C132.011 67.4329 140.882 58.5535 140.882 47.5996H133.749C133.749 54.6107 128.072 60.2929 121.067 60.2929Z" fill="#8EDF82"/>
<path d="M51.7162 0H44.583V49.5833H51.7162V0Z" fill="#8EDF82"/>
<path d="M96.4972 79.334C85.5536 79.334 76.6826 88.2134 76.6826 99.1673C76.6826 110.122 85.5536 119.001 96.4972 119.001C107.441 119.001 116.312 110.122 116.312 99.1673C116.312 88.2134 107.441 79.334 96.4972 79.334ZM96.4972 111.861C89.4927 111.861 83.8159 106.179 83.8159 99.1673C83.8159 92.1563 89.4927 86.474 96.4972 86.474C103.502 86.474 109.178 92.1563 109.178 99.1673C109.178 106.179 103.502 111.861 96.4972 111.861Z" fill="#8EDF82"/>
<path d="M171 69.416H163.867V118.999H171V69.416Z" fill="#8EDF82"/>
<path d="M31.1086 79.334H11.4922V86.474H31.1086V79.334Z" fill="#8EDF82"/>
<path d="M19.6165 111.859H0V118.999H19.6165V111.859Z" fill="#8EDF82"/>
<path d="M19.6162 95.5977H11.4922V102.738H19.6162V95.5977Z" fill="#8EDF82"/>
<path d="M11.4925 95.5874C9.06716 95.4842 7.13326 93.483 7.13326 91.0316C7.13326 88.5802 9.06716 86.5791 11.4925 86.4759V79.3359C5.12802 79.441 0 84.6354 0 91.0297C0 97.4239 5.12802 102.621 11.4925 102.726V95.5854V95.5874Z" fill="#8EDF82"/>
<path d="M19.6162 102.748C22.0415 102.851 23.9754 104.852 23.9754 107.303C23.9754 109.755 22.0415 111.756 19.6162 111.859V118.999C25.9806 118.892 31.1086 113.698 31.1086 107.303C31.1086 100.909 25.9806 95.7125 19.6162 95.6074V102.748Z" fill="#8EDF82"/>
<path d="M73.7107 102.73H41.2148V95.5898H73.3897L73.7107 99.1598V102.73Z" fill="#8EDF82"/>
<path d="M53.8957 79.334C42.9521 79.334 34.0811 88.2134 34.0811 99.1673C34.0811 110.122 42.9521 119.001 53.8957 119.001C59.3665 119.001 64.3201 116.782 67.9066 113.192L62.8618 108.142C60.5672 110.439 57.3969 111.861 53.8957 111.861C46.8912 111.861 41.2143 106.179 41.2143 99.1673C41.2143 92.1563 46.8912 86.474 53.8957 86.474C60.9001 86.474 66.577 92.1563 66.577 99.1673H73.7103C73.7103 88.2134 64.8393 79.334 53.8957 79.334Z" fill="#8EDF82"/>
<path d="M126.417 80.3242H119.284V99.1659H126.417V80.3242Z" fill="#8EDF82"/>
<path d="M158.913 80.3242H151.78V99.1659H158.913V80.3242Z" fill="#8EDF82"/>
<path d="M139.099 111.859C132.094 111.859 126.417 106.177 126.417 99.166H119.284C119.284 110.12 128.155 118.999 139.099 118.999C150.042 118.999 158.913 110.12 158.913 99.166H151.78C151.78 106.177 146.103 111.859 139.099 111.859Z" fill="#8EDF82"/>
</g>
</g>
<defs>
<clipPath id="clip0_528_4713">
<rect width="171" height="119" fill="white"/>
</clipPath>
</defs>
</svg>
