<svg width="100%" height="100%" viewBox="0 0 55 72" fill="none" xmlns="http://www.w3.org/2000/svg">
<path d="M27.5 72C42.413 72 54.5 63 54.5 47.25C54.5 40.5 52.25 29.25 43.25 20.25C44.375 27 37.625 29.25 37.625 29.25C41 18 32 2.25 18.5 0C20.1065 9 20.75 18 9.5 27C3.875 31.5 0.5 39.2805 0.5 47.25C0.5 63 12.587 72 27.5 72ZM27.5 67.5C20.0435 67.5 14 63 14 55.125C14 51.75 15.125 46.125 19.625 41.625C19.0625 45 23 47.25 23 47.25C21.3125 41.625 25.25 32.625 32 31.5C31.1945 36 30.875 40.5 36.5 45C39.3125 47.25 41 51.138 41 55.125C41 63 34.9565 67.5 27.5 67.5Z" fill="#F29E48"/>
</svg>
