<svg width="196" height="96" viewBox="0 0 196 96" fill="none" xmlns="http://www.w3.org/2000/svg">
<g filter="url(#filter0_d_297_5455)">
<rect x="18" y="18" width="160" height="60" rx="30" fill="#DCFA5C"/>
<path d="M53.9754 41.365V54.7H52.3554V41.365H53.9754ZM50.0304 42.76C50.0304 44.16 49.8304 45.44 49.4304 46.6C49.0404 47.76 48.3904 48.83 47.4804 49.81C46.5704 50.78 45.3704 51.625 43.8804 52.345L43.0254 51.07C44.3054 50.46 45.3404 49.76 46.1304 48.97C46.9304 48.18 47.5104 47.3 47.8704 46.33C48.2404 45.35 48.4254 44.255 48.4254 43.045V42.76H50.0304ZM49.1754 42.76V44.05H43.7004V42.76H49.1754ZM68.1358 48.595V49.9H56.0608V48.595H68.1358ZM66.6358 41.665V45.1H59.1808V46.705H57.5908V43.96H65.0458V42.895H57.5758V41.665H66.6358ZM66.9058 46.21V47.44H57.5908V46.21H66.9058ZM62.9008 46.84V49.27H61.2808V46.84H62.9008ZM66.7108 50.755V54.625H65.1058V52.045H57.3958V50.755H66.7108ZM77.3082 42.445V44.575C77.3082 45.685 77.1532 46.73 76.8432 47.71C76.5432 48.69 76.1032 49.56 75.5232 50.32C74.9432 51.07 74.2532 51.635 73.4532 52.015L72.4932 50.68C73.1932 50.36 73.8082 49.885 74.3382 49.255C74.8682 48.625 75.2732 47.905 75.5532 47.095C75.8332 46.285 75.9732 45.445 75.9732 44.575V42.445H77.3082ZM77.5932 42.445V44.575C77.5932 45.405 77.7282 46.21 77.9982 46.99C78.2782 47.76 78.6782 48.45 79.1982 49.06C79.7182 49.67 80.3232 50.125 81.0132 50.425L80.0682 51.73C79.2882 51.36 78.6082 50.815 78.0282 50.095C77.4582 49.375 77.0232 48.545 76.7232 47.605C76.4332 46.655 76.2882 45.645 76.2882 44.575V42.445H77.5932ZM83.6082 41.35V54.73H81.9882V41.35H83.6082ZM90.1785 42.73V43.675C90.1785 44.515 90.0335 45.3 89.7435 46.03C89.4535 46.76 89.0285 47.395 88.4685 47.935C87.9085 48.475 87.2385 48.88 86.4585 49.15L85.6035 47.89C86.2935 47.66 86.8835 47.33 87.3735 46.9C87.8635 46.46 88.2335 45.965 88.4835 45.415C88.7335 44.855 88.8585 44.275 88.8585 43.675V42.73H90.1785ZM90.4785 42.73V43.675C90.4785 44.235 90.5985 44.775 90.8385 45.295C91.0785 45.815 91.4335 46.28 91.9035 46.69C92.3735 47.1 92.9435 47.415 93.6135 47.635L92.7885 48.91C92.0185 48.65 91.3635 48.26 90.8235 47.74C90.2835 47.21 89.8685 46.6 89.5785 45.91C89.2985 45.21 89.1585 44.465 89.1585 43.675V42.73H90.4785ZM93.2385 42.22V43.51H86.0535V42.22H93.2385ZM96.1635 41.365V49.39H94.5585V41.365H96.1635ZM98.0235 44.725V46.06H95.7285V44.725H98.0235ZM96.1635 50.035V54.7H94.5585V51.34H87.3735V50.035H96.1635ZM109.229 41.365V54.7H107.609V41.365H109.229ZM111.254 46.69V48.025H108.854V46.69H111.254ZM106.604 43.405V44.695H98.7739V43.405H106.604ZM102.734 45.61C103.364 45.61 103.929 45.745 104.429 46.015C104.939 46.275 105.334 46.645 105.614 47.125C105.904 47.595 106.049 48.13 106.049 48.73C106.049 49.33 105.904 49.87 105.614 50.35C105.334 50.82 104.939 51.19 104.429 51.46C103.929 51.73 103.364 51.865 102.734 51.865C102.104 51.865 101.534 51.73 101.024 51.46C100.524 51.19 100.129 50.82 99.8389 50.35C99.5489 49.87 99.4039 49.33 99.4039 48.73C99.4039 48.13 99.5439 47.595 99.8239 47.125C100.114 46.645 100.514 46.275 101.024 46.015C101.534 45.745 102.104 45.61 102.734 45.61ZM102.734 46.93C102.384 46.93 102.074 47.005 101.804 47.155C101.544 47.305 101.334 47.515 101.174 47.785C101.024 48.055 100.949 48.37 100.949 48.73C100.949 49.1 101.024 49.42 101.174 49.69C101.324 49.96 101.534 50.17 101.804 50.32C102.074 50.47 102.384 50.545 102.734 50.545C103.074 50.545 103.379 50.47 103.649 50.32C103.919 50.17 104.129 49.96 104.279 49.69C104.429 49.41 104.504 49.09 104.504 48.73C104.504 48.38 104.429 48.07 104.279 47.8C104.129 47.52 103.919 47.305 103.649 47.155C103.379 47.005 103.074 46.93 102.734 46.93ZM103.544 41.56V43.93H101.909V41.56H103.544ZM122.984 41.365V54.7H121.364V41.365H122.984ZM119.039 42.76C119.039 44.16 118.839 45.44 118.439 46.6C118.049 47.76 117.399 48.83 116.489 49.81C115.579 50.78 114.379 51.625 112.889 52.345L112.034 51.07C113.314 50.46 114.349 49.76 115.139 48.97C115.939 48.18 116.519 47.3 116.879 46.33C117.249 45.35 117.434 44.255 117.434 43.045V42.76H119.039ZM118.184 42.76V44.05H112.709V42.76H118.184Z" fill="#050E04"/>
<rect x="131" y="27.5" width="41" height="41" rx="20.5" fill="#DCFA5C"/>
<path d="M148.5 38L158.5 48L148.5 58L146.725 56.225L154.95 48L146.725 39.775L148.5 38Z" fill="#050E04"/>
</g>
<defs>
<filter id="filter0_d_297_5455" x="0" y="0" width="196" height="96" filterUnits="userSpaceOnUse" color-interpolation-filters="sRGB">
<feFlood flood-opacity="0" result="BackgroundImageFix"/>
<feColorMatrix in="SourceAlpha" type="matrix" values="0 0 0 0 0 0 0 0 0 0 0 0 0 0 0 0 0 0 127 0" result="hardAlpha"/>
<feMorphology radius="2" operator="dilate" in="SourceAlpha" result="effect1_dropShadow_297_5455"/>
<feOffset/>
<feGaussianBlur stdDeviation="8"/>
<feComposite in2="hardAlpha" operator="out"/>
<feColorMatrix type="matrix" values="0 0 0 0 0 0 0 0 0 0 0 0 0 0 0 0 0 0 0.12 0"/>
<feBlend mode="normal" in2="BackgroundImageFix" result="effect1_dropShadow_297_5455"/>
<feBlend mode="normal" in="SourceGraphic" in2="effect1_dropShadow_297_5455" result="shape"/>
</filter>
</defs>
</svg>
