<svg width="126" height="126" viewBox="0 0 126 126" fill="none" xmlns="http://www.w3.org/2000/svg">
<g filter="url(#filter0_d_1551_6922)">
<rect x="18" y="18" width="90" height="90" rx="45" fill="white" shape-rendering="crispEdges"/>
<path d="M66.5 81.8125V71.3125L62.825 67.8125L61.075 75.5125L49 73.0625L49.7 69.5625L58.1 71.3125L60.9 57.1375L57.75 58.3625V64.3125H54.25V56.0875L61.1625 53.1125C62.1833 52.675 62.9347 52.3909 63.4165 52.2603C63.8983 52.1296 64.3428 52.0637 64.75 52.0625C65.3625 52.0625 65.9313 52.2229 66.4563 52.5438C66.9813 52.8646 67.4042 53.2875 67.725 53.8125L69.475 56.6125C70.2333 57.8375 71.2617 58.8438 72.5602 59.6313C73.8587 60.4188 75.3387 60.8125 77 60.8125V64.3125C75.075 64.3125 73.2737 63.9112 71.596 63.1085C69.9183 62.3058 68.5113 61.2488 67.375 59.9375L66.325 65.1875L70 68.6875V81.8125H66.5ZM67.375 51.1875C66.4125 51.1875 65.5882 50.8445 64.9023 50.1585C64.2162 49.4725 63.8738 48.6488 63.875 47.6875C63.875 46.725 64.218 45.9008 64.904 45.2148C65.59 44.5288 66.4137 44.1863 67.375 44.1875C68.3375 44.1875 69.1618 44.5305 69.8477 45.2165C70.5338 45.9025 70.8762 46.7262 70.875 47.6875C70.875 48.65 70.532 49.4743 69.846 50.1603C69.16 50.8463 68.3363 51.1887 67.375 51.1875Z" fill="#8EDF82"/>
</g>
<defs>
<filter id="filter0_d_1551_6922" x="0" y="0" width="126" height="126" filterUnits="userSpaceOnUse" color-interpolation-filters="sRGB">
<feFlood flood-opacity="0" result="BackgroundImageFix"/>
<feColorMatrix in="SourceAlpha" type="matrix" values="0 0 0 0 0 0 0 0 0 0 0 0 0 0 0 0 0 0 127 0" result="hardAlpha"/>
<feMorphology radius="2" operator="dilate" in="SourceAlpha" result="effect1_dropShadow_1551_6922"/>
<feOffset/>
<feGaussianBlur stdDeviation="8"/>
<feComposite in2="hardAlpha" operator="out"/>
<feColorMatrix type="matrix" values="0 0 0 0 0 0 0 0 0 0 0 0 0 0 0 0 0 0 0.12 0"/>
<feBlend mode="normal" in2="BackgroundImageFix" result="effect1_dropShadow_1551_6922"/>
<feBlend mode="normal" in="SourceGraphic" in2="effect1_dropShadow_1551_6922" result="shape"/>
</filter>
</defs>
</svg>
