<svg width="103" height="21" viewBox="0 0 103 21" fill="none" xmlns="http://www.w3.org/2000/svg">
<g clip-path="url(#clip0_844_5752)">
<path d="M23.8413 3.08838C20.43 3.08838 17.6648 5.85358 17.6648 9.26485C17.6648 12.6761 20.43 15.4413 23.8413 15.4413C27.2525 15.4413 30.0177 12.6761 30.0177 9.26485C30.0177 5.85358 27.2525 3.08838 23.8413 3.08838ZM23.8413 13.2178C21.6579 13.2178 19.8883 11.4482 19.8883 9.26485C19.8883 7.08147 21.6579 5.31191 23.8413 5.31191C26.0246 5.31191 27.7942 7.08147 27.7942 9.26485C27.7942 11.4482 26.0246 13.2178 23.8413 13.2178Z" fill="#050E04"/>
<path d="M6.17647 3.08838C2.76521 3.08838 0 5.85358 0 9.26485C0 12.6761 2.76521 15.4413 6.17647 15.4413C9.58774 15.4413 12.3529 12.6761 12.3529 9.26485C12.3529 5.85358 9.58774 3.08838 6.17647 3.08838ZM6.17647 13.2178C3.99309 13.2178 2.22353 11.4482 2.22353 9.26485C2.22353 7.08147 3.99309 5.31191 6.17647 5.31191C8.35985 5.31191 10.1294 7.08147 10.1294 9.26485C10.1294 11.4482 8.35985 13.2178 6.17647 13.2178Z" fill="#050E04"/>
<path d="M2.22353 20.9999H0V9.26465H0.268059C1.34832 9.26465 2.22353 10.1405 2.22353 11.2201V20.9999Z" fill="#050E04"/>
<path d="M37.7382 3.08838C34.327 3.08838 31.5618 5.85358 31.5618 9.26485C31.5618 12.6761 34.327 15.4413 37.7382 15.4413C41.1495 15.4413 43.9147 12.6761 43.9147 9.26485C43.9147 5.85358 41.1495 3.08838 37.7382 3.08838ZM37.7382 13.2178C35.5549 13.2178 33.7853 11.4482 33.7853 9.26485C33.7853 7.08147 35.5549 5.31191 37.7382 5.31191C39.9216 5.31191 41.6912 7.08147 41.6912 9.26485C41.6912 11.4482 39.9216 13.2178 37.7382 13.2178Z" fill="#050E04"/>
<path d="M37.7382 18.7767C35.5549 18.7767 33.7853 17.0071 33.7853 14.8237H31.5618C31.5618 18.235 34.327 21.0002 37.7382 21.0002C41.1495 21.0002 43.9147 18.235 43.9147 14.8237H41.6912C41.6912 17.0071 39.9216 18.7767 37.7382 18.7767Z" fill="#050E04"/>
<path d="M16.1205 0H13.897V15.4412H16.1205V0Z" fill="#050E04"/>
<path d="M79.3369 3.08838C75.9256 3.08838 73.1604 5.85358 73.1604 9.26485C73.1604 12.6761 75.9256 15.4413 79.3369 15.4413C82.7481 15.4413 85.5133 12.6761 85.5133 9.26485C85.5133 5.85358 82.7481 3.08838 79.3369 3.08838ZM79.3369 13.2178C77.1535 13.2178 75.3839 11.4482 75.3839 9.26485C75.3839 7.08147 77.1535 5.31191 79.3369 5.31191C81.5203 5.31191 83.2898 7.08147 83.2898 9.26485C83.2898 11.4482 81.5203 13.2178 79.3369 13.2178Z" fill="#050E04"/>
<path d="M102.56 0H100.337V15.4412H102.56V0Z" fill="#050E04"/>
<path d="M58.9543 3.08838H52.8396V5.31191H58.9543V3.08838Z" fill="#050E04"/>
<path d="M55.372 13.2178H49.2573V15.4413H55.372V13.2178Z" fill="#050E04"/>
<path d="M55.372 8.15283H52.8396V10.3764H55.372V8.15283Z" fill="#050E04"/>
<path d="M52.8397 8.14987C52.0837 8.11775 51.4809 7.49454 51.4809 6.73113C51.4809 5.96772 52.0837 5.34451 52.8397 5.3124V3.08887C50.8558 3.1216 49.2573 4.73922 49.2573 6.73051C49.2573 8.72181 50.8558 10.34 52.8397 10.3728V8.14925V8.14987Z" fill="#050E04"/>
<path d="M55.3721 10.3798C56.1281 10.4119 56.7309 11.0351 56.7309 11.7985C56.7309 12.5619 56.1281 13.1851 55.3721 13.2173V15.4408C57.356 15.4074 58.9544 13.7898 58.9544 11.7985C58.9544 9.80722 57.356 8.18899 55.3721 8.15625V10.3798Z" fill="#050E04"/>
<path d="M72.2339 10.3744H62.1045V8.15088H72.1338L72.2339 9.26264V10.3744Z" fill="#050E04"/>
<path d="M66.0573 3.08838C62.6461 3.08838 59.8809 5.85358 59.8809 9.26485C59.8809 12.6761 62.6461 15.4413 66.0573 15.4413C67.7627 15.4413 69.3068 14.7502 70.4247 13.6322L68.8522 12.0597C68.1369 12.7749 67.1487 13.2178 66.0573 13.2178C63.8739 13.2178 62.1044 11.4482 62.1044 9.26485C62.1044 7.08147 63.8739 5.31191 66.0573 5.31191C68.2407 5.31191 70.0103 7.08147 70.0103 9.26485H72.2338C72.2338 5.85358 69.4686 3.08838 66.0573 3.08838Z" fill="#050E04"/>
<path d="M88.6632 3.39697H86.4397V9.26462H88.6632V3.39697Z" fill="#050E04"/>
<path d="M98.7926 3.39697H96.5691V9.26462H98.7926V3.39697Z" fill="#050E04"/>
<path d="M92.6162 13.2176C90.4328 13.2176 88.6632 11.448 88.6632 9.26465H86.4397C86.4397 12.6759 89.2049 15.4411 92.6162 15.4411C96.0274 15.4411 98.7926 12.6759 98.7926 9.26465H96.5691C96.5691 11.448 94.7996 13.2176 92.6162 13.2176Z" fill="#050E04"/>
</g>
<defs>
<clipPath id="clip0_844_5752">
<rect width="102.529" height="21" fill="white"/>
</clipPath>
</defs>
</svg>
