<svg width="16" height="17" viewBox="0 0 16 16" fill="none" xmlns="http://www.w3.org/2000/svg">
<path d="M7.90807 2.55128C10.0106 2.55128 12.027 3.28608 13.5137 4.59402C15.0004 5.90197 15.8357 7.67593 15.8357 9.52564C15.8357 11.3754 15.0004 13.1493 13.5137 14.4573C12.027 15.7652 10.0106 16.5 7.90807 16.5C5.80554 16.5 3.78912 15.7652 2.30241 14.4573C0.815695 13.1493 -0.0195312 11.3754 -0.0195312 9.52564C-0.0195312 7.67593 0.815695 5.90197 2.30241 4.59402C3.78912 3.28608 5.80554 2.55128 7.90807 2.55128ZM7.90807 3.78205C6.17657 3.78205 4.51599 4.38718 3.29164 5.46431C2.06729 6.54144 1.37946 8.00235 1.37946 9.52564C1.37946 11.0489 2.06729 12.5098 3.29164 13.587C4.51599 14.6641 6.17657 15.2692 7.90807 15.2692C9.63956 15.2692 11.3001 14.6641 12.5245 13.587C13.7488 12.5098 14.4367 11.0489 14.4367 9.52564C14.4367 8.00235 13.7488 6.54144 12.5245 5.46431C11.3001 4.38718 9.63956 3.78205 7.90807 3.78205ZM7.90807 5.01282C8.0771 5.01283 8.24041 5.06668 8.3678 5.16442C8.49519 5.26217 8.57804 5.39719 8.60103 5.54451L8.60756 5.6282V9.32051C8.6075 9.47643 8.54018 9.62651 8.41919 9.74044C8.2982 9.85437 8.13256 9.92365 7.95574 9.93428C7.77893 9.9449 7.60412 9.89609 7.46664 9.7977C7.32916 9.6993 7.23926 9.55867 7.2151 9.40421L7.20857 9.32051V5.6282C7.20857 5.46499 7.28227 5.30847 7.41345 5.19306C7.54463 5.07766 7.72255 5.01282 7.90807 5.01282ZM14.5738 2.64482L14.6512 2.69405L15.7312 3.48503C15.8664 3.58508 15.9536 3.72646 15.9752 3.88075C15.9968 4.03504 15.9513 4.1908 15.8477 4.31674C15.7441 4.44268 15.5902 4.52947 15.4168 4.55966C15.2435 4.58985 15.0636 4.56121 14.9133 4.47949L14.8368 4.43026L13.7558 3.63928C13.6206 3.53922 13.5334 3.39785 13.5118 3.24356C13.4902 3.08927 13.5358 2.93351 13.6394 2.80756C13.743 2.68162 13.8969 2.59484 14.0702 2.56465C14.2436 2.53446 14.4235 2.5631 14.5738 2.64482ZM10.0065 0.5C10.1838 0.500048 10.3544 0.559278 10.4839 0.665721C10.6134 0.772165 10.6921 0.917886 10.7042 1.07344C10.7163 1.22899 10.6608 1.38278 10.549 1.50373C10.4371 1.62468 10.2773 1.70377 10.1017 1.72503L10.0065 1.73077H5.80958C5.63236 1.73072 5.46176 1.67149 5.33226 1.56505C5.20276 1.4586 5.12401 1.31288 5.11193 1.15733C5.09985 1.00178 5.15534 0.847986 5.26718 0.727037C5.37902 0.606088 5.53888 0.526996 5.71445 0.505744L5.80958 0.5H10.0065Z" fill="white"/>
</svg>
