<svg width="90" height="90" viewBox="0 0 90 90" fill="none" xmlns="http://www.w3.org/2000/svg">
<g filter="url(#filter0_d_432_10659)">
<rect x="23" y="23" width="44" height="44" rx="22" fill="#DCFA5C" shape-rendering="crispEdges"/>
<path d="M47.75 59.7813V51.5313L44.8625 48.7813L43.4875 54.8313L34 52.9063L34.55 50.1563L41.15 51.5313L43.35 40.3938L40.875 41.3563V46.0313H38.125V39.5688L43.5562 37.2313C44.3583 36.8875 44.9487 36.6643 45.3272 36.5616C45.7058 36.459 46.0551 36.4072 46.375 36.4063C46.8562 36.4063 47.3031 36.5323 47.7156 36.7844C48.1281 37.0365 48.4604 37.3688 48.7125 37.7813L50.0875 39.9813C50.6833 40.9438 51.4914 41.7344 52.5116 42.3531C53.5319 42.9719 54.6947 43.2813 56 43.2813V46.0313C54.4875 46.0313 53.0722 45.7159 51.754 45.0853C50.4358 44.4546 49.3303 43.6241 48.4375 42.5938L47.6125 46.7188L50.5 49.4688V59.7813H47.75ZM48.4375 35.7188C47.6812 35.7188 47.0336 35.4493 46.4946 34.9103C45.9556 34.3713 45.6866 33.7241 45.6875 32.9688C45.6875 32.2125 45.957 31.5649 46.496 31.0259C47.035 30.4869 47.6822 30.2178 48.4375 30.2188C49.1938 30.2188 49.8414 30.4883 50.3804 31.0273C50.9194 31.5663 51.1884 32.2134 51.1875 32.9688C51.1875 33.725 50.918 34.3726 50.379 34.9116C49.84 35.4506 49.1928 35.7197 48.4375 35.7188Z" fill="#050E04"/>
<rect x="20.5" y="20.5" width="49" height="49" rx="24.5" stroke="white" stroke-width="5" shape-rendering="crispEdges"/>
</g>
<defs>
<filter id="filter0_d_432_10659" x="0" y="0" width="90" height="90" filterUnits="userSpaceOnUse" color-interpolation-filters="sRGB">
<feFlood flood-opacity="0" result="BackgroundImageFix"/>
<feColorMatrix in="SourceAlpha" type="matrix" values="0 0 0 0 0 0 0 0 0 0 0 0 0 0 0 0 0 0 127 0" result="hardAlpha"/>
<feMorphology radius="2" operator="dilate" in="SourceAlpha" result="effect1_dropShadow_432_10659"/>
<feOffset/>
<feGaussianBlur stdDeviation="8"/>
<feComposite in2="hardAlpha" operator="out"/>
<feColorMatrix type="matrix" values="0 0 0 0 0 0 0 0 0 0 0 0 0 0 0 0 0 0 0.12 0"/>
<feBlend mode="normal" in2="BackgroundImageFix" result="effect1_dropShadow_432_10659"/>
<feBlend mode="normal" in="SourceGraphic" in2="effect1_dropShadow_432_10659" result="shape"/>
</filter>
</defs>
</svg>
