<svg width="1024" height="1024" viewBox="0 0 1024 1024" fill="none" xmlns="http://www.w3.org/2000/svg">
<circle cx="512" cy="512" r="512" fill="#8EDF82"/>
<g clip-path="url(#clip0_612_6669)">
<path d="M475.8 312C431.616 312 395.8 347.816 395.8 392C395.8 436.184 431.616 472 475.8 472C519.984 472 555.8 436.184 555.8 392C555.8 347.816 519.984 312 475.8 312ZM475.8 443.2C447.52 443.2 424.6 420.28 424.6 392C424.6 363.72 447.52 340.8 475.8 340.8C504.08 340.8 527 363.72 527 392C527 420.28 504.08 443.2 475.8 443.2Z" fill="#050E04"/>
<path d="M247 312C202.816 312 167 347.816 167 392C167 436.184 202.816 472 247 472C291.184 472 327 436.184 327 392C327 347.816 291.184 312 247 312ZM247 443.2C218.72 443.2 195.8 420.28 195.8 392C195.8 363.72 218.72 340.8 247 340.8C275.28 340.8 298.2 363.72 298.2 392C298.2 420.28 275.28 443.2 247 443.2Z" fill="#050E04"/>
<path d="M195.8 544H167V392H170.472C184.464 392 195.8 403.344 195.8 417.328V544Z" fill="#050E04"/>
<path d="M655.8 312C611.616 312 575.8 347.816 575.8 392C575.8 436.184 611.616 472 655.8 472C699.984 472 735.8 436.184 735.8 392C735.8 347.816 699.984 312 655.8 312ZM655.8 443.2C627.52 443.2 604.6 420.28 604.6 392C604.6 363.72 627.52 340.8 655.8 340.8C684.08 340.8 707 363.72 707 392C707 420.28 684.08 443.2 655.8 443.2Z" fill="#050E04"/>
<path d="M655.8 515.2C627.52 515.2 604.6 492.28 604.6 464H575.8C575.8 508.184 611.616 544 655.8 544C699.984 544 735.8 508.184 735.8 464H707C707 492.28 684.08 515.2 655.8 515.2Z" fill="#050E04"/>
<path d="M375.8 272H347V472H375.8V272Z" fill="#050E04"/>
<path d="M556.6 592C512.416 592 476.6 627.816 476.6 672C476.6 716.184 512.416 752 556.6 752C600.784 752 636.6 716.184 636.6 672C636.6 627.816 600.784 592 556.6 592ZM556.6 723.2C528.32 723.2 505.4 700.28 505.4 672C505.4 643.72 528.32 620.8 556.6 620.8C584.88 620.8 607.8 643.72 607.8 672C607.8 700.28 584.88 723.2 556.6 723.2Z" fill="#050E04"/>
<path d="M857.4 552H828.6V752H857.4V552Z" fill="#050E04"/>
<path d="M292.6 592H213.4V620.8H292.6V592Z" fill="#050E04"/>
<path d="M246.2 723.2H167V752H246.2V723.2Z" fill="#050E04"/>
<path d="M246.2 657.6H213.4V686.4H246.2V657.6Z" fill="#050E04"/>
<path d="M213.4 657.56C203.608 657.144 195.8 649.072 195.8 639.184C195.8 629.296 203.608 621.224 213.4 620.808V592.008C187.704 592.432 167 613.384 167 639.176C167 664.968 187.704 685.928 213.4 686.352V657.552V657.56Z" fill="#050E04"/>
<path d="M246.2 686.44C255.992 686.856 263.8 694.928 263.8 704.816C263.8 714.704 255.992 722.776 246.2 723.192V751.992C271.896 751.56 292.6 730.608 292.6 704.816C292.6 679.024 271.896 658.064 246.2 657.64V686.44Z" fill="#050E04"/>
<path d="M464.6 686.376H333.4V657.576H463.304L464.6 671.976V686.376Z" fill="#050E04"/>
<path d="M384.6 592C340.416 592 304.6 627.816 304.6 672C304.6 716.184 340.416 752 384.6 752C406.688 752 426.688 743.048 441.168 728.568L420.8 708.2C411.536 717.464 398.736 723.2 384.6 723.2C356.32 723.2 333.4 700.28 333.4 672C333.4 643.72 356.32 620.8 384.6 620.8C412.88 620.8 435.8 643.72 435.8 672H464.6C464.6 627.816 428.784 592 384.6 592Z" fill="#050E04"/>
<path d="M677.4 596H648.6V672H677.4V596Z" fill="#050E04"/>
<path d="M808.6 596H779.8V672H808.6V596Z" fill="#050E04"/>
<path d="M728.6 723.2C700.32 723.2 677.4 700.28 677.4 672H648.6C648.6 716.184 684.416 752 728.6 752C772.784 752 808.6 716.184 808.6 672H779.8C779.8 700.28 756.88 723.2 728.6 723.2Z" fill="#050E04"/>
</g>
<defs>
<clipPath id="clip0_612_6669">
<rect width="690.4" height="480" fill="white" transform="translate(167 272)"/>
</clipPath>
</defs>
</svg>
